<mxfile host="Electron" modified="2023-05-25T04:09:48.667Z" agent="Mozilla/5.0 (Windows NT 10.0; Win64; x64) AppleWebKit/537.36 (KHTML, like Gecko) draw.io/21.2.8 Chrome/112.0.5615.165 Electron/24.2.0 Safari/537.36" etag="XQZeeFSax4JgSjRgZznT" version="21.2.8" type="device">
  <diagram name="Page-1" id="UNMp74wK-7mR93B6kvjo">
    <mxGraphModel dx="849" dy="346" grid="1" gridSize="10" guides="1" tooltips="1" connect="1" arrows="1" fold="1" page="1" pageScale="1" pageWidth="850" pageHeight="1100" math="0" shadow="0">
      <root>
        <mxCell id="0" />
        <mxCell id="1" parent="0" />
        <mxCell id="o1DuDizpJcU1cGeXtoII-5" value="" style="edgeStyle=orthogonalEdgeStyle;rounded=0;orthogonalLoop=1;jettySize=auto;html=1;" parent="1" source="o1DuDizpJcU1cGeXtoII-1" target="o1DuDizpJcU1cGeXtoII-4" edge="1">
          <mxGeometry relative="1" as="geometry" />
        </mxCell>
        <mxCell id="o1DuDizpJcU1cGeXtoII-1" value="start" style="ellipse;whiteSpace=wrap;html=1;" parent="1" vertex="1">
          <mxGeometry x="130" y="20" width="120" height="80" as="geometry" />
        </mxCell>
        <mxCell id="o1DuDizpJcU1cGeXtoII-7" value="" style="edgeStyle=orthogonalEdgeStyle;rounded=0;orthogonalLoop=1;jettySize=auto;html=1;" parent="1" source="o1DuDizpJcU1cGeXtoII-4" target="o1DuDizpJcU1cGeXtoII-6" edge="1">
          <mxGeometry relative="1" as="geometry" />
        </mxCell>
        <mxCell id="o1DuDizpJcU1cGeXtoII-4" value="nomor" style="shape=parallelogram;perimeter=parallelogramPerimeter;whiteSpace=wrap;html=1;fixedSize=1;" parent="1" vertex="1">
          <mxGeometry x="130" y="140" width="120" height="60" as="geometry" />
        </mxCell>
        <mxCell id="o1DuDizpJcU1cGeXtoII-10" value="" style="edgeStyle=orthogonalEdgeStyle;rounded=0;orthogonalLoop=1;jettySize=auto;html=1;" parent="1" source="o1DuDizpJcU1cGeXtoII-6" target="tfR2QfWA8c1eJMqMdNpU-48" edge="1">
          <mxGeometry relative="1" as="geometry">
            <mxPoint x="350" y="335" as="targetPoint" />
          </mxGeometry>
        </mxCell>
        <mxCell id="o1DuDizpJcU1cGeXtoII-12" value="" style="edgeStyle=orthogonalEdgeStyle;rounded=0;orthogonalLoop=1;jettySize=auto;html=1;" parent="1" source="o1DuDizpJcU1cGeXtoII-6" target="o1DuDizpJcU1cGeXtoII-11" edge="1">
          <mxGeometry relative="1" as="geometry" />
        </mxCell>
        <mxCell id="o1DuDizpJcU1cGeXtoII-6" value="nomor=1&lt;br&gt;nomor=2&lt;br&gt;nomor=3&lt;br&gt;nomor=4&lt;br&gt;nomor!= 1,2,3,4" style="rhombus;whiteSpace=wrap;html=1;" parent="1" vertex="1">
          <mxGeometry x="95" y="240" width="190" height="190" as="geometry" />
        </mxCell>
        <mxCell id="o1DuDizpJcU1cGeXtoII-14" value="" style="edgeStyle=orthogonalEdgeStyle;rounded=0;orthogonalLoop=1;jettySize=auto;html=1;" parent="1" source="o1DuDizpJcU1cGeXtoII-11" target="o1DuDizpJcU1cGeXtoII-13" edge="1">
          <mxGeometry relative="1" as="geometry" />
        </mxCell>
        <mxCell id="o1DuDizpJcU1cGeXtoII-23" style="edgeStyle=orthogonalEdgeStyle;rounded=0;orthogonalLoop=1;jettySize=auto;html=1;entryX=0;entryY=0.5;entryDx=0;entryDy=0;" parent="1" source="o1DuDizpJcU1cGeXtoII-11" target="o1DuDizpJcU1cGeXtoII-24" edge="1">
          <mxGeometry relative="1" as="geometry">
            <mxPoint x="799.9999999999998" y="519.9999999999999" as="targetPoint" />
            <Array as="points">
              <mxPoint x="980" y="520" />
            </Array>
          </mxGeometry>
        </mxCell>
        <mxCell id="o1DuDizpJcU1cGeXtoII-11" value="&lt;font style=&quot;font-size: 10px;&quot;&gt;nomor=1 (Data&lt;br style=&quot;border-color: var(--border-color); text-align: left;&quot;&gt;&lt;span style=&quot;text-align: left;&quot;&gt;Mahasiswa/Peminjam)&lt;/span&gt;&lt;/font&gt;" style="rhombus;whiteSpace=wrap;html=1;" parent="1" vertex="1">
          <mxGeometry x="130" y="460" width="120" height="120" as="geometry" />
        </mxCell>
        <mxCell id="o1DuDizpJcU1cGeXtoII-16" value="" style="edgeStyle=orthogonalEdgeStyle;rounded=0;orthogonalLoop=1;jettySize=auto;html=1;" parent="1" source="o1DuDizpJcU1cGeXtoII-13" target="o1DuDizpJcU1cGeXtoII-15" edge="1">
          <mxGeometry relative="1" as="geometry" />
        </mxCell>
        <mxCell id="o1DuDizpJcU1cGeXtoII-39" value="" style="edgeStyle=orthogonalEdgeStyle;rounded=0;orthogonalLoop=1;jettySize=auto;html=1;entryX=0;entryY=0.5;entryDx=0;entryDy=0;" parent="1" source="o1DuDizpJcU1cGeXtoII-13" target="tfR2QfWA8c1eJMqMdNpU-2" edge="1">
          <mxGeometry relative="1" as="geometry">
            <mxPoint x="882" y="671" as="targetPoint" />
            <Array as="points">
              <mxPoint x="820" y="671" />
              <mxPoint x="820" y="671" />
            </Array>
          </mxGeometry>
        </mxCell>
        <mxCell id="o1DuDizpJcU1cGeXtoII-13" value="&lt;font style=&quot;font-size: 10px;&quot;&gt;nomor=2 (Data Katalog Buku)&lt;/font&gt;" style="rhombus;whiteSpace=wrap;html=1;" parent="1" vertex="1">
          <mxGeometry x="130" y="611" width="120" height="120" as="geometry" />
        </mxCell>
        <mxCell id="o1DuDizpJcU1cGeXtoII-18" value="" style="edgeStyle=orthogonalEdgeStyle;rounded=0;orthogonalLoop=1;jettySize=auto;html=1;" parent="1" source="o1DuDizpJcU1cGeXtoII-15" target="o1DuDizpJcU1cGeXtoII-17" edge="1">
          <mxGeometry relative="1" as="geometry" />
        </mxCell>
        <mxCell id="ksyCokjNtOuHgGahdS1c-106" style="edgeStyle=orthogonalEdgeStyle;rounded=0;orthogonalLoop=1;jettySize=auto;html=1;entryX=0;entryY=0.5;entryDx=0;entryDy=0;" parent="1" source="o1DuDizpJcU1cGeXtoII-15" target="ksyCokjNtOuHgGahdS1c-55" edge="1">
          <mxGeometry relative="1" as="geometry" />
        </mxCell>
        <mxCell id="o1DuDizpJcU1cGeXtoII-15" value="&lt;font style=&quot;font-size: 10px;&quot;&gt;nomor=3 (Data Transaksi&lt;br style=&quot;border-color: var(--border-color); text-align: left;&quot;&gt;&lt;span style=&quot;text-align: left;&quot;&gt;Peminjaman Buku)&lt;/span&gt;&lt;/font&gt;" style="rhombus;whiteSpace=wrap;html=1;" parent="1" vertex="1">
          <mxGeometry x="130" y="760" width="120" height="120" as="geometry" />
        </mxCell>
        <mxCell id="ksyCokjNtOuHgGahdS1c-114" value="" style="edgeStyle=orthogonalEdgeStyle;rounded=0;orthogonalLoop=1;jettySize=auto;html=1;" parent="1" source="o1DuDizpJcU1cGeXtoII-17" target="ksyCokjNtOuHgGahdS1c-113" edge="1">
          <mxGeometry relative="1" as="geometry" />
        </mxCell>
        <mxCell id="AIB080mdf0gy7x4jEZcV-32" value="" style="edgeStyle=orthogonalEdgeStyle;rounded=0;orthogonalLoop=1;jettySize=auto;html=1;" parent="1" source="o1DuDizpJcU1cGeXtoII-17" target="AIB080mdf0gy7x4jEZcV-18" edge="1">
          <mxGeometry relative="1" as="geometry" />
        </mxCell>
        <mxCell id="o1DuDizpJcU1cGeXtoII-17" value="&lt;font style=&quot;font-size: 10px;&quot;&gt;nomor=4 (Data History Peminjaman dan Pengembalian)&lt;/font&gt;" style="rhombus;whiteSpace=wrap;html=1;" parent="1" vertex="1">
          <mxGeometry x="130" y="910" width="120" height="120" as="geometry" />
        </mxCell>
        <mxCell id="o1DuDizpJcU1cGeXtoII-28" value="" style="edgeStyle=orthogonalEdgeStyle;rounded=0;orthogonalLoop=1;jettySize=auto;html=1;" parent="1" target="o1DuDizpJcU1cGeXtoII-27" edge="1">
          <mxGeometry relative="1" as="geometry">
            <mxPoint x="3737" y="546" as="sourcePoint" />
          </mxGeometry>
        </mxCell>
        <mxCell id="o1DuDizpJcU1cGeXtoII-24" value="nomor" style="shape=parallelogram;perimeter=parallelogramPerimeter;whiteSpace=wrap;html=1;fixedSize=1;" parent="1" vertex="1">
          <mxGeometry x="3677" y="490" width="120" height="60" as="geometry" />
        </mxCell>
        <mxCell id="o1DuDizpJcU1cGeXtoII-93" value="" style="edgeStyle=orthogonalEdgeStyle;rounded=0;orthogonalLoop=1;jettySize=auto;html=1;entryX=0;entryY=0.5;entryDx=0;entryDy=0;" parent="1" source="o1DuDizpJcU1cGeXtoII-27" target="EPJNS99RMiqDkLSaGEO_-33" edge="1">
          <mxGeometry relative="1" as="geometry">
            <mxPoint x="3837" y="626" as="targetPoint" />
          </mxGeometry>
        </mxCell>
        <mxCell id="EPJNS99RMiqDkLSaGEO_-37" value="" style="edgeStyle=orthogonalEdgeStyle;rounded=0;orthogonalLoop=1;jettySize=auto;html=1;" parent="1" source="o1DuDizpJcU1cGeXtoII-27" target="o1DuDizpJcU1cGeXtoII-29" edge="1">
          <mxGeometry relative="1" as="geometry" />
        </mxCell>
        <mxCell id="o1DuDizpJcU1cGeXtoII-27" value="nomor=1" style="rhombus;whiteSpace=wrap;html=1;" parent="1" vertex="1">
          <mxGeometry x="3697" y="586" width="80" height="80" as="geometry" />
        </mxCell>
        <mxCell id="o1DuDizpJcU1cGeXtoII-95" value="" style="edgeStyle=orthogonalEdgeStyle;rounded=0;orthogonalLoop=1;jettySize=auto;html=1;" parent="1" source="o1DuDizpJcU1cGeXtoII-29" target="o1DuDizpJcU1cGeXtoII-94" edge="1">
          <mxGeometry relative="1" as="geometry" />
        </mxCell>
        <mxCell id="EPJNS99RMiqDkLSaGEO_-22" value="" style="edgeStyle=orthogonalEdgeStyle;rounded=0;orthogonalLoop=1;jettySize=auto;html=1;" parent="1" source="o1DuDizpJcU1cGeXtoII-29" target="o1DuDizpJcU1cGeXtoII-31" edge="1">
          <mxGeometry relative="1" as="geometry" />
        </mxCell>
        <mxCell id="o1DuDizpJcU1cGeXtoII-29" value="nomor=2" style="rhombus;whiteSpace=wrap;html=1;" parent="1" vertex="1">
          <mxGeometry x="3697" y="727" width="80" height="80" as="geometry" />
        </mxCell>
        <mxCell id="o1DuDizpJcU1cGeXtoII-34" value="" style="edgeStyle=orthogonalEdgeStyle;rounded=0;orthogonalLoop=1;jettySize=auto;html=1;" parent="1" source="o1DuDizpJcU1cGeXtoII-31" target="o1DuDizpJcU1cGeXtoII-33" edge="1">
          <mxGeometry relative="1" as="geometry" />
        </mxCell>
        <mxCell id="o1DuDizpJcU1cGeXtoII-31" value="nomor=3" style="rhombus;whiteSpace=wrap;html=1;" parent="1" vertex="1">
          <mxGeometry x="3697" y="946" width="80" height="80" as="geometry" />
        </mxCell>
        <mxCell id="o1DuDizpJcU1cGeXtoII-36" value="" style="edgeStyle=orthogonalEdgeStyle;rounded=0;orthogonalLoop=1;jettySize=auto;html=1;" parent="1" source="o1DuDizpJcU1cGeXtoII-33" target="o1DuDizpJcU1cGeXtoII-35" edge="1">
          <mxGeometry relative="1" as="geometry" />
        </mxCell>
        <mxCell id="o1DuDizpJcU1cGeXtoII-33" value="nomor=4" style="rhombus;whiteSpace=wrap;html=1;" parent="1" vertex="1">
          <mxGeometry x="3697" y="1208" width="80" height="80" as="geometry" />
        </mxCell>
        <mxCell id="o_doi1X4LtrOFVroaM1k-7" style="edgeStyle=orthogonalEdgeStyle;rounded=0;orthogonalLoop=1;jettySize=auto;html=1;" parent="1" source="o1DuDizpJcU1cGeXtoII-35" edge="1">
          <mxGeometry relative="1" as="geometry">
            <mxPoint x="40" y="1090" as="targetPoint" />
            <Array as="points">
              <mxPoint x="3737" y="2600" />
              <mxPoint x="40" y="2600" />
            </Array>
          </mxGeometry>
        </mxCell>
        <mxCell id="o1DuDizpJcU1cGeXtoII-35" value="nomor=5" style="rhombus;whiteSpace=wrap;html=1;" parent="1" vertex="1">
          <mxGeometry x="3697" y="1440" width="80" height="80" as="geometry" />
        </mxCell>
        <mxCell id="EPJNS99RMiqDkLSaGEO_-2" value="" style="edgeStyle=orthogonalEdgeStyle;rounded=0;orthogonalLoop=1;jettySize=auto;html=1;" parent="1" source="o1DuDizpJcU1cGeXtoII-94" target="EPJNS99RMiqDkLSaGEO_-1" edge="1">
          <mxGeometry relative="1" as="geometry" />
        </mxCell>
        <mxCell id="o1DuDizpJcU1cGeXtoII-94" value="Masukkan&lt;br&gt;Npm" style="shape=parallelogram;perimeter=parallelogramPerimeter;whiteSpace=wrap;html=1;fixedSize=1;" parent="1" vertex="1">
          <mxGeometry x="3837" y="737" width="120" height="60" as="geometry" />
        </mxCell>
        <mxCell id="o_doi1X4LtrOFVroaM1k-1" value="" style="edgeStyle=orthogonalEdgeStyle;rounded=0;orthogonalLoop=1;jettySize=auto;html=1;exitX=1;exitY=0.5;exitDx=0;exitDy=0;" parent="1" source="o1DuDizpJcU1cGeXtoII-31" target="o_doi1X4LtrOFVroaM1k-2" edge="1">
          <mxGeometry relative="1" as="geometry">
            <mxPoint x="3777" y="986" as="sourcePoint" />
          </mxGeometry>
        </mxCell>
        <mxCell id="o_doi1X4LtrOFVroaM1k-11" value="" style="edgeStyle=orthogonalEdgeStyle;rounded=0;orthogonalLoop=1;jettySize=auto;html=1;" parent="1" source="o_doi1X4LtrOFVroaM1k-2" target="o_doi1X4LtrOFVroaM1k-10" edge="1">
          <mxGeometry relative="1" as="geometry" />
        </mxCell>
        <mxCell id="o_doi1X4LtrOFVroaM1k-2" value="Masukkan&lt;br&gt;Npm" style="shape=parallelogram;perimeter=parallelogramPerimeter;whiteSpace=wrap;html=1;fixedSize=1;" parent="1" vertex="1">
          <mxGeometry x="3837" y="956" width="120" height="60" as="geometry" />
        </mxCell>
        <mxCell id="o_doi1X4LtrOFVroaM1k-3" value="" style="edgeStyle=orthogonalEdgeStyle;rounded=0;orthogonalLoop=1;jettySize=auto;html=1;exitX=1;exitY=0.5;exitDx=0;exitDy=0;entryX=0;entryY=0.5;entryDx=0;entryDy=0;" parent="1" source="o1DuDizpJcU1cGeXtoII-35" target="JRqJ5GmoJPgniSZNuA87-19" edge="1">
          <mxGeometry relative="1" as="geometry">
            <mxPoint x="3777" y="1397" as="sourcePoint" />
            <mxPoint x="3907" y="1480" as="targetPoint" />
          </mxGeometry>
        </mxCell>
        <mxCell id="o_doi1X4LtrOFVroaM1k-5" value="" style="edgeStyle=orthogonalEdgeStyle;rounded=0;orthogonalLoop=1;jettySize=auto;html=1;exitX=1;exitY=0.5;exitDx=0;exitDy=0;" parent="1" source="o1DuDizpJcU1cGeXtoII-33" target="o_doi1X4LtrOFVroaM1k-6" edge="1">
          <mxGeometry relative="1" as="geometry">
            <mxPoint x="3777" y="1248" as="sourcePoint" />
          </mxGeometry>
        </mxCell>
        <mxCell id="EPJNS99RMiqDkLSaGEO_-24" value="" style="edgeStyle=orthogonalEdgeStyle;rounded=0;orthogonalLoop=1;jettySize=auto;html=1;entryX=0;entryY=0.5;entryDx=0;entryDy=0;" parent="1" source="JRqJ5GmoJPgniSZNuA87-9" target="EPJNS99RMiqDkLSaGEO_-25" edge="1">
          <mxGeometry relative="1" as="geometry">
            <mxPoint x="3997" y="1248" as="targetPoint" />
          </mxGeometry>
        </mxCell>
        <mxCell id="o_doi1X4LtrOFVroaM1k-6" value="Masukkan&lt;br&gt;Npm" style="shape=parallelogram;perimeter=parallelogramPerimeter;whiteSpace=wrap;html=1;fixedSize=1;" parent="1" vertex="1">
          <mxGeometry x="3837" y="1218" width="120" height="60" as="geometry" />
        </mxCell>
        <mxCell id="o_doi1X4LtrOFVroaM1k-9" style="edgeStyle=orthogonalEdgeStyle;rounded=0;orthogonalLoop=1;jettySize=auto;html=1;entryX=1;entryY=0.5;entryDx=0;entryDy=0;exitX=1;exitY=0.5;exitDx=0;exitDy=0;" parent="1" source="JRqJ5GmoJPgniSZNuA87-19" target="o1DuDizpJcU1cGeXtoII-24" edge="1">
          <mxGeometry relative="1" as="geometry">
            <Array as="points">
              <mxPoint x="4940" y="1480" />
              <mxPoint x="4940" y="520" />
            </Array>
            <mxPoint x="4010" y="1480" as="sourcePoint" />
          </mxGeometry>
        </mxCell>
        <mxCell id="o_doi1X4LtrOFVroaM1k-13" value="" style="edgeStyle=orthogonalEdgeStyle;rounded=0;orthogonalLoop=1;jettySize=auto;html=1;exitX=1;exitY=0.5;exitDx=0;exitDy=0;entryX=0;entryY=0.5;entryDx=0;entryDy=0;" parent="1" source="o_doi1X4LtrOFVroaM1k-10" target="JRqJ5GmoJPgniSZNuA87-7" edge="1">
          <mxGeometry relative="1" as="geometry">
            <mxPoint x="4097" y="985" as="sourcePoint" />
            <mxPoint x="4127" y="986" as="targetPoint" />
          </mxGeometry>
        </mxCell>
        <mxCell id="o_doi1X4LtrOFVroaM1k-10" value="Apakah&lt;br&gt;Npm tersedia di datamaster?" style="rhombus;whiteSpace=wrap;html=1;" parent="1" vertex="1">
          <mxGeometry x="3987" y="931" width="110" height="110" as="geometry" />
        </mxCell>
        <mxCell id="EPJNS99RMiqDkLSaGEO_-5" value="" style="edgeStyle=orthogonalEdgeStyle;rounded=0;orthogonalLoop=1;jettySize=auto;html=1;entryX=0;entryY=0.5;entryDx=0;entryDy=0;" parent="1" source="EPJNS99RMiqDkLSaGEO_-1" target="JRqJ5GmoJPgniSZNuA87-5" edge="1">
          <mxGeometry relative="1" as="geometry">
            <mxPoint x="4400" y="768.5" as="targetPoint" />
          </mxGeometry>
        </mxCell>
        <mxCell id="EPJNS99RMiqDkLSaGEO_-1" value="Apakah&amp;nbsp;&lt;br&gt;Npm sudah ada?" style="rhombus;whiteSpace=wrap;html=1;" parent="1" vertex="1">
          <mxGeometry x="4007" y="708" width="130" height="118" as="geometry" />
        </mxCell>
        <mxCell id="EPJNS99RMiqDkLSaGEO_-12" value="" style="edgeStyle=orthogonalEdgeStyle;rounded=0;orthogonalLoop=1;jettySize=auto;html=1;exitX=1;exitY=0.5;exitDx=0;exitDy=0;" parent="1" source="JRqJ5GmoJPgniSZNuA87-7" target="EPJNS99RMiqDkLSaGEO_-11" edge="1">
          <mxGeometry relative="1" as="geometry">
            <mxPoint x="4247" y="986" as="sourcePoint" />
          </mxGeometry>
        </mxCell>
        <mxCell id="dfl-2LmNSql80xYp9Fll-14" value="" style="edgeStyle=orthogonalEdgeStyle;rounded=0;orthogonalLoop=1;jettySize=auto;html=1;" edge="1" parent="1" target="dfl-2LmNSql80xYp9Fll-13">
          <mxGeometry relative="1" as="geometry">
            <mxPoint x="4461.944444444445" y="986.4444444444443" as="sourcePoint" />
          </mxGeometry>
        </mxCell>
        <mxCell id="EPJNS99RMiqDkLSaGEO_-11" value="Apakah&amp;nbsp;&lt;br&gt;Anda yakin untuk mengedit?" style="rhombus;whiteSpace=wrap;html=1;rounded=0;" parent="1" vertex="1">
          <mxGeometry x="4307" y="929" width="115" height="115" as="geometry" />
        </mxCell>
        <mxCell id="EPJNS99RMiqDkLSaGEO_-29" style="edgeStyle=orthogonalEdgeStyle;rounded=0;orthogonalLoop=1;jettySize=auto;html=1;exitX=0.5;exitY=1;exitDx=0;exitDy=0;" parent="1" source="EPJNS99RMiqDkLSaGEO_-25" edge="1">
          <mxGeometry relative="1" as="geometry">
            <mxPoint x="4940" y="1369" as="targetPoint" />
            <Array as="points">
              <mxPoint x="4257" y="1369" />
            </Array>
          </mxGeometry>
        </mxCell>
        <mxCell id="dfl-2LmNSql80xYp9Fll-18" value="" style="edgeStyle=orthogonalEdgeStyle;rounded=0;orthogonalLoop=1;jettySize=auto;html=1;" edge="1" parent="1" source="EPJNS99RMiqDkLSaGEO_-25" target="dfl-2LmNSql80xYp9Fll-17">
          <mxGeometry relative="1" as="geometry" />
        </mxCell>
        <mxCell id="EPJNS99RMiqDkLSaGEO_-25" value="&lt;font style=&quot;font-size: 11px;&quot;&gt;Apakah anda yakin ingin&lt;br&gt;menghapus data mahasiswa dengan NPM xxx dan NAMA xxx&lt;br&gt;tersebut?&lt;/font&gt;" style="rhombus;whiteSpace=wrap;html=1;" parent="1" vertex="1">
          <mxGeometry x="4157" y="1147" width="200" height="200" as="geometry" />
        </mxCell>
        <mxCell id="EPJNS99RMiqDkLSaGEO_-30" style="edgeStyle=orthogonalEdgeStyle;rounded=0;orthogonalLoop=1;jettySize=auto;html=1;exitX=1;exitY=0.5;exitDx=0;exitDy=0;" parent="1" source="EPJNS99RMiqDkLSaGEO_-38" edge="1">
          <mxGeometry relative="1" as="geometry">
            <mxPoint x="4940" y="1248" as="targetPoint" />
            <mxPoint x="4785" y="1249" as="sourcePoint" />
            <Array as="points">
              <mxPoint x="4930" y="1248" />
              <mxPoint x="4930" y="1248" />
            </Array>
          </mxGeometry>
        </mxCell>
        <mxCell id="EPJNS99RMiqDkLSaGEO_-33" value="Tampilkan data mahasiswa" style="shape=parallelogram;perimeter=parallelogramPerimeter;whiteSpace=wrap;html=1;fixedSize=1;" parent="1" vertex="1">
          <mxGeometry x="3827" y="596" width="120" height="60" as="geometry" />
        </mxCell>
        <mxCell id="EPJNS99RMiqDkLSaGEO_-38" value="&#xa;&lt;span style=&quot;color: rgb(0, 0, 0); font-family: Helvetica; font-size: 12px; font-style: normal; font-variant-ligatures: normal; font-variant-caps: normal; font-weight: 400; letter-spacing: normal; orphans: 2; text-align: center; text-indent: 0px; text-transform: none; widows: 2; word-spacing: 0px; -webkit-text-stroke-width: 0px; background-color: rgb(251, 251, 251); text-decoration-thickness: initial; text-decoration-style: initial; text-decoration-color: initial; float: none; display: inline !important;&quot;&gt;Hapus mahasiswa berhasil&lt;/span&gt;&#xa;&#xa;" style="shape=parallelogram;perimeter=parallelogramPerimeter;whiteSpace=wrap;html=1;fixedSize=1;size=40;" parent="1" vertex="1">
          <mxGeometry x="4718" y="1209.63" width="210" height="76.37" as="geometry" />
        </mxCell>
        <mxCell id="EPJNS99RMiqDkLSaGEO_-45" value="" style="edgeStyle=orthogonalEdgeStyle;rounded=0;orthogonalLoop=1;jettySize=auto;html=1;" parent="1" source="EPJNS99RMiqDkLSaGEO_-42" edge="1">
          <mxGeometry relative="1" as="geometry">
            <mxPoint x="4940" y="985.9949999999999" as="targetPoint" />
          </mxGeometry>
        </mxCell>
        <mxCell id="EPJNS99RMiqDkLSaGEO_-42" value="Edit mahasiswa&lt;br&gt;berhasil" style="shape=parallelogram;perimeter=parallelogramPerimeter;whiteSpace=wrap;html=1;fixedSize=1;size=40;" parent="1" vertex="1">
          <mxGeometry x="4650" y="956.8299999999999" width="140" height="58.33" as="geometry" />
        </mxCell>
        <mxCell id="dfl-2LmNSql80xYp9Fll-2" value="" style="edgeStyle=orthogonalEdgeStyle;rounded=0;orthogonalLoop=1;jettySize=auto;html=1;" edge="1" parent="1" source="EPJNS99RMiqDkLSaGEO_-49" target="dfl-2LmNSql80xYp9Fll-1">
          <mxGeometry relative="1" as="geometry" />
        </mxCell>
        <mxCell id="EPJNS99RMiqDkLSaGEO_-49" value="Input nama" style="shape=parallelogram;perimeter=parallelogramPerimeter;whiteSpace=wrap;html=1;fixedSize=1;" parent="1" vertex="1">
          <mxGeometry x="4126" y="828" width="140" height="70" as="geometry" />
        </mxCell>
        <mxCell id="tfR2QfWA8c1eJMqMdNpU-1" value="" style="edgeStyle=orthogonalEdgeStyle;rounded=0;orthogonalLoop=1;jettySize=auto;html=1;" parent="1" target="tfR2QfWA8c1eJMqMdNpU-5" edge="1">
          <mxGeometry relative="1" as="geometry">
            <mxPoint x="2392" y="701" as="sourcePoint" />
          </mxGeometry>
        </mxCell>
        <mxCell id="tfR2QfWA8c1eJMqMdNpU-2" value="nomor" style="shape=parallelogram;perimeter=parallelogramPerimeter;whiteSpace=wrap;html=1;fixedSize=1;" parent="1" vertex="1">
          <mxGeometry x="2332" y="641" width="120" height="60" as="geometry" />
        </mxCell>
        <mxCell id="tfR2QfWA8c1eJMqMdNpU-3" value="" style="edgeStyle=orthogonalEdgeStyle;rounded=0;orthogonalLoop=1;jettySize=auto;html=1;" parent="1" target="tfR2QfWA8c1eJMqMdNpU-8" edge="1">
          <mxGeometry relative="1" as="geometry">
            <mxPoint x="2392" y="821" as="sourcePoint" />
          </mxGeometry>
        </mxCell>
        <mxCell id="tfR2QfWA8c1eJMqMdNpU-4" value="" style="edgeStyle=orthogonalEdgeStyle;rounded=0;orthogonalLoop=1;jettySize=auto;html=1;" parent="1" source="tfR2QfWA8c1eJMqMdNpU-5" target="tfR2QfWA8c1eJMqMdNpU-25" edge="1">
          <mxGeometry relative="1" as="geometry" />
        </mxCell>
        <mxCell id="tfR2QfWA8c1eJMqMdNpU-5" value="nomor=1" style="rhombus;whiteSpace=wrap;html=1;" parent="1" vertex="1">
          <mxGeometry x="2352" y="741" width="80" height="80" as="geometry" />
        </mxCell>
        <mxCell id="tfR2QfWA8c1eJMqMdNpU-6" value="" style="edgeStyle=orthogonalEdgeStyle;rounded=0;orthogonalLoop=1;jettySize=auto;html=1;" parent="1" source="tfR2QfWA8c1eJMqMdNpU-8" target="tfR2QfWA8c1eJMqMdNpU-11" edge="1">
          <mxGeometry relative="1" as="geometry" />
        </mxCell>
        <mxCell id="ksyCokjNtOuHgGahdS1c-148" value="" style="edgeStyle=orthogonalEdgeStyle;rounded=0;orthogonalLoop=1;jettySize=auto;html=1;" parent="1" source="tfR2QfWA8c1eJMqMdNpU-8" target="ksyCokjNtOuHgGahdS1c-145" edge="1">
          <mxGeometry relative="1" as="geometry" />
        </mxCell>
        <mxCell id="tfR2QfWA8c1eJMqMdNpU-8" value="nomor=2" style="rhombus;whiteSpace=wrap;html=1;" parent="1" vertex="1">
          <mxGeometry x="2352" y="840" width="80" height="80" as="geometry" />
        </mxCell>
        <mxCell id="tfR2QfWA8c1eJMqMdNpU-9" value="" style="edgeStyle=orthogonalEdgeStyle;rounded=0;orthogonalLoop=1;jettySize=auto;html=1;" parent="1" source="tfR2QfWA8c1eJMqMdNpU-11" target="tfR2QfWA8c1eJMqMdNpU-14" edge="1">
          <mxGeometry relative="1" as="geometry" />
        </mxCell>
        <mxCell id="ksyCokjNtOuHgGahdS1c-152" value="" style="edgeStyle=orthogonalEdgeStyle;rounded=0;orthogonalLoop=1;jettySize=auto;html=1;" parent="1" source="tfR2QfWA8c1eJMqMdNpU-11" target="ksyCokjNtOuHgGahdS1c-151" edge="1">
          <mxGeometry relative="1" as="geometry" />
        </mxCell>
        <mxCell id="tfR2QfWA8c1eJMqMdNpU-11" value="nomor=3" style="rhombus;whiteSpace=wrap;html=1;" parent="1" vertex="1">
          <mxGeometry x="2352" y="1064.5" width="80" height="80" as="geometry" />
        </mxCell>
        <mxCell id="tfR2QfWA8c1eJMqMdNpU-12" value="" style="edgeStyle=orthogonalEdgeStyle;rounded=0;orthogonalLoop=1;jettySize=auto;html=1;" parent="1" source="tfR2QfWA8c1eJMqMdNpU-14" target="tfR2QfWA8c1eJMqMdNpU-17" edge="1">
          <mxGeometry relative="1" as="geometry" />
        </mxCell>
        <mxCell id="ksyCokjNtOuHgGahdS1c-176" value="" style="edgeStyle=orthogonalEdgeStyle;rounded=0;orthogonalLoop=1;jettySize=auto;html=1;" parent="1" source="tfR2QfWA8c1eJMqMdNpU-14" target="ksyCokjNtOuHgGahdS1c-175" edge="1">
          <mxGeometry relative="1" as="geometry" />
        </mxCell>
        <mxCell id="tfR2QfWA8c1eJMqMdNpU-14" value="nomor=4" style="rhombus;whiteSpace=wrap;html=1;" parent="1" vertex="1">
          <mxGeometry x="2352" y="1303" width="80" height="80" as="geometry" />
        </mxCell>
        <mxCell id="tfR2QfWA8c1eJMqMdNpU-16" value="" style="edgeStyle=orthogonalEdgeStyle;rounded=0;orthogonalLoop=1;jettySize=auto;html=1;" parent="1" source="tfR2QfWA8c1eJMqMdNpU-17" target="tfR2QfWA8c1eJMqMdNpU-23" edge="1">
          <mxGeometry relative="1" as="geometry" />
        </mxCell>
        <mxCell id="AIB080mdf0gy7x4jEZcV-1" style="edgeStyle=orthogonalEdgeStyle;rounded=0;orthogonalLoop=1;jettySize=auto;html=1;" parent="1" source="tfR2QfWA8c1eJMqMdNpU-17" edge="1">
          <mxGeometry relative="1" as="geometry">
            <mxPoint x="2302" y="2600" as="targetPoint" />
            <Array as="points">
              <mxPoint x="2382" y="2600" />
            </Array>
          </mxGeometry>
        </mxCell>
        <mxCell id="tfR2QfWA8c1eJMqMdNpU-17" value="nomor=5" style="rhombus;whiteSpace=wrap;html=1;" parent="1" vertex="1">
          <mxGeometry x="2352" y="1580" width="80" height="80" as="geometry" />
        </mxCell>
        <mxCell id="dfl-2LmNSql80xYp9Fll-31" style="edgeStyle=orthogonalEdgeStyle;rounded=0;orthogonalLoop=1;jettySize=auto;html=1;" edge="1" parent="1" source="tfR2QfWA8c1eJMqMdNpU-21">
          <mxGeometry relative="1" as="geometry">
            <mxPoint x="3650" y="1342.9999999999998" as="targetPoint" />
          </mxGeometry>
        </mxCell>
        <mxCell id="tfR2QfWA8c1eJMqMdNpU-21" value="buku berhasil dihapus" style="shape=parallelogram;perimeter=parallelogramPerimeter;whiteSpace=wrap;html=1;fixedSize=1;" parent="1" vertex="1">
          <mxGeometry x="3360" y="1318.25" width="135" height="49.5" as="geometry" />
        </mxCell>
        <mxCell id="tfR2QfWA8c1eJMqMdNpU-22" style="edgeStyle=orthogonalEdgeStyle;rounded=0;orthogonalLoop=1;jettySize=auto;html=1;entryX=1;entryY=0.5;entryDx=0;entryDy=0;exitX=1;exitY=0.5;exitDx=0;exitDy=0;" parent="1" source="tfR2QfWA8c1eJMqMdNpU-23" target="tfR2QfWA8c1eJMqMdNpU-2" edge="1">
          <mxGeometry relative="1" as="geometry">
            <mxPoint x="2850" y="630" as="targetPoint" />
            <Array as="points">
              <mxPoint x="3650" y="1621" />
              <mxPoint x="3650" y="671" />
            </Array>
            <mxPoint x="2531" y="1591" as="sourcePoint" />
          </mxGeometry>
        </mxCell>
        <mxCell id="tfR2QfWA8c1eJMqMdNpU-23" value="pilih nomor yang sesuai" style="whiteSpace=wrap;html=1;" parent="1" vertex="1">
          <mxGeometry x="2551" y="1590.5" width="120" height="60" as="geometry" />
        </mxCell>
        <mxCell id="tfR2QfWA8c1eJMqMdNpU-24" style="edgeStyle=orthogonalEdgeStyle;rounded=0;orthogonalLoop=1;jettySize=auto;html=1;exitX=1;exitY=0.5;exitDx=0;exitDy=0;" parent="1" source="tfR2QfWA8c1eJMqMdNpU-25" edge="1">
          <mxGeometry relative="1" as="geometry">
            <mxPoint x="3650" y="780" as="targetPoint" />
            <mxPoint x="2829.9523809523807" y="781.1428571428573" as="sourcePoint" />
          </mxGeometry>
        </mxCell>
        <mxCell id="tfR2QfWA8c1eJMqMdNpU-25" value="tampilkan daftar buku" style="shape=parallelogram;perimeter=parallelogramPerimeter;whiteSpace=wrap;html=1;fixedSize=1;" parent="1" vertex="1">
          <mxGeometry x="2482" y="751" width="148" height="60" as="geometry" />
        </mxCell>
        <mxCell id="tfR2QfWA8c1eJMqMdNpU-27" value="buku berhasil ditambahkan" style="shape=parallelogram;perimeter=parallelogramPerimeter;whiteSpace=wrap;html=1;fixedSize=1;" parent="1" vertex="1">
          <mxGeometry x="3240" y="950" width="120" height="60" as="geometry" />
        </mxCell>
        <mxCell id="ksyCokjNtOuHgGahdS1c-168" style="edgeStyle=orthogonalEdgeStyle;rounded=0;orthogonalLoop=1;jettySize=auto;html=1;exitX=1;exitY=0.5;exitDx=0;exitDy=0;" parent="1" source="tfR2QfWA8c1eJMqMdNpU-37" edge="1">
          <mxGeometry relative="1" as="geometry">
            <mxPoint x="3650" y="1233" as="targetPoint" />
            <Array as="points">
              <mxPoint x="3022" y="1233" />
              <mxPoint x="3330" y="1233" />
            </Array>
          </mxGeometry>
        </mxCell>
        <mxCell id="tfR2QfWA8c1eJMqMdNpU-37" value="isbn tidak ditemukan" style="whiteSpace=wrap;html=1;" parent="1" vertex="1">
          <mxGeometry x="2671" y="1202.5" width="120" height="60" as="geometry" />
        </mxCell>
        <mxCell id="tfR2QfWA8c1eJMqMdNpU-42" value="data berhasil diubah" style="shape=parallelogram;perimeter=parallelogramPerimeter;whiteSpace=wrap;html=1;fixedSize=1;" parent="1" vertex="1">
          <mxGeometry x="3479" y="1072.5" width="130" height="63" as="geometry" />
        </mxCell>
        <mxCell id="tfR2QfWA8c1eJMqMdNpU-45" value="buku tidak ditemukan" style="shape=parallelogram;perimeter=parallelogramPerimeter;whiteSpace=wrap;html=1;fixedSize=1;" parent="1" vertex="1">
          <mxGeometry x="3020" y="1510" width="155" height="61" as="geometry" />
        </mxCell>
        <mxCell id="tfR2QfWA8c1eJMqMdNpU-48" value="end" style="ellipse;whiteSpace=wrap;html=1;" parent="1" vertex="1">
          <mxGeometry x="450" y="295" width="120" height="80" as="geometry" />
        </mxCell>
        <mxCell id="ksyCokjNtOuHgGahdS1c-54" value="" style="edgeStyle=orthogonalEdgeStyle;rounded=0;orthogonalLoop=1;jettySize=auto;html=1;" parent="1" source="ksyCokjNtOuHgGahdS1c-55" target="ksyCokjNtOuHgGahdS1c-86" edge="1">
          <mxGeometry relative="1" as="geometry" />
        </mxCell>
        <mxCell id="ksyCokjNtOuHgGahdS1c-55" value="no.1-Daftar peminjaman aktif&lt;br&gt;no.2-Tambah peminjaman&lt;br&gt;no.3-Edit peminjaman&lt;br&gt;no.4-pengembalian&lt;br&gt;no.5-Hapus peminjaman&lt;br&gt;no.6-Kembali ke menu utama" style="shape=parallelogram;perimeter=parallelogramPerimeter;whiteSpace=wrap;html=1;fixedSize=1;" parent="1" vertex="1">
          <mxGeometry x="787" y="760" width="240" height="120" as="geometry" />
        </mxCell>
        <mxCell id="ksyCokjNtOuHgGahdS1c-56" value="" style="endArrow=classic;html=1;rounded=0;" parent="1" source="ksyCokjNtOuHgGahdS1c-86" edge="1">
          <mxGeometry width="50" height="50" relative="1" as="geometry">
            <mxPoint x="907" y="980" as="sourcePoint" />
            <mxPoint x="906.1700000000001" y="985" as="targetPoint" />
          </mxGeometry>
        </mxCell>
        <mxCell id="ksyCokjNtOuHgGahdS1c-57" value="" style="edgeStyle=orthogonalEdgeStyle;rounded=0;orthogonalLoop=1;jettySize=auto;html=1;" parent="1" source="ksyCokjNtOuHgGahdS1c-59" target="ksyCokjNtOuHgGahdS1c-63" edge="1">
          <mxGeometry relative="1" as="geometry" />
        </mxCell>
        <mxCell id="ksyCokjNtOuHgGahdS1c-58" value="" style="edgeStyle=orthogonalEdgeStyle;rounded=0;orthogonalLoop=1;jettySize=auto;html=1;" parent="1" source="ksyCokjNtOuHgGahdS1c-59" target="ksyCokjNtOuHgGahdS1c-78" edge="1">
          <mxGeometry relative="1" as="geometry" />
        </mxCell>
        <mxCell id="ksyCokjNtOuHgGahdS1c-59" value="nomor =.2" style="rhombus;whiteSpace=wrap;html=1;" parent="1" vertex="1">
          <mxGeometry x="859.5" y="1095" width="95" height="90" as="geometry" />
        </mxCell>
        <mxCell id="ksyCokjNtOuHgGahdS1c-61" value="" style="edgeStyle=orthogonalEdgeStyle;rounded=0;orthogonalLoop=1;jettySize=auto;html=1;" parent="1" source="ksyCokjNtOuHgGahdS1c-86" target="ksyCokjNtOuHgGahdS1c-59" edge="1">
          <mxGeometry relative="1" as="geometry" />
        </mxCell>
        <mxCell id="ksyCokjNtOuHgGahdS1c-62" value="" style="edgeStyle=orthogonalEdgeStyle;rounded=0;orthogonalLoop=1;jettySize=auto;html=1;" parent="1" source="ksyCokjNtOuHgGahdS1c-63" target="ksyCokjNtOuHgGahdS1c-75" edge="1">
          <mxGeometry relative="1" as="geometry" />
        </mxCell>
        <mxCell id="ksyCokjNtOuHgGahdS1c-63" value="Masukkan&lt;br&gt;nama mahasiswa" style="shape=parallelogram;perimeter=parallelogramPerimeter;whiteSpace=wrap;html=1;fixedSize=1;" parent="1" vertex="1">
          <mxGeometry x="1037" y="1107.5" width="145" height="65" as="geometry" />
        </mxCell>
        <mxCell id="ksyCokjNtOuHgGahdS1c-67" value="" style="edgeStyle=orthogonalEdgeStyle;rounded=0;orthogonalLoop=1;jettySize=auto;html=1;" parent="1" source="ksyCokjNtOuHgGahdS1c-69" target="ksyCokjNtOuHgGahdS1c-71" edge="1">
          <mxGeometry relative="1" as="geometry" />
        </mxCell>
        <mxCell id="ksyCokjNtOuHgGahdS1c-68" value="" style="edgeStyle=orthogonalEdgeStyle;rounded=0;orthogonalLoop=1;jettySize=auto;html=1;" parent="1" source="ksyCokjNtOuHgGahdS1c-69" target="ksyCokjNtOuHgGahdS1c-72" edge="1">
          <mxGeometry relative="1" as="geometry" />
        </mxCell>
        <mxCell id="ksyCokjNtOuHgGahdS1c-69" value="apakah &lt;br&gt;nama mahasiswa ada dalam peminjaman?" style="rhombus;whiteSpace=wrap;html=1;" parent="1" vertex="1">
          <mxGeometry x="1497" y="1048.75" width="180" height="182.5" as="geometry" />
        </mxCell>
        <mxCell id="ksyCokjNtOuHgGahdS1c-71" value="nama mahasiswa masih meminjam buku" style="whiteSpace=wrap;html=1;" parent="1" vertex="1">
          <mxGeometry x="1527" y="1349.25" width="120" height="60" as="geometry" />
        </mxCell>
        <mxCell id="ksyCokjNtOuHgGahdS1c-72" value="Tamplikan :&lt;br&gt;-list buku&lt;br&gt;-stok&lt;br&gt;-judul&lt;br&gt;-tgl peminjaman&lt;br&gt;-tgl pengembalian&lt;br&gt;-denda" style="shape=parallelogram;perimeter=parallelogramPerimeter;whiteSpace=wrap;html=1;fixedSize=1;" parent="1" vertex="1">
          <mxGeometry x="1710" y="1089.06" width="160" height="101.88" as="geometry" />
        </mxCell>
        <mxCell id="ksyCokjNtOuHgGahdS1c-73" style="edgeStyle=orthogonalEdgeStyle;rounded=0;orthogonalLoop=1;jettySize=auto;html=1;entryX=0;entryY=0.5;entryDx=0;entryDy=0;" parent="1" source="ksyCokjNtOuHgGahdS1c-75" target="ksyCokjNtOuHgGahdS1c-69" edge="1">
          <mxGeometry relative="1" as="geometry" />
        </mxCell>
        <mxCell id="ksyCokjNtOuHgGahdS1c-74" value="" style="edgeStyle=orthogonalEdgeStyle;rounded=0;orthogonalLoop=1;jettySize=auto;html=1;entryX=0.5;entryY=0;entryDx=0;entryDy=0;" parent="1" source="ksyCokjNtOuHgGahdS1c-75" target="JRqJ5GmoJPgniSZNuA87-54" edge="1">
          <mxGeometry relative="1" as="geometry">
            <mxPoint x="1316" y="1240" as="targetPoint" />
          </mxGeometry>
        </mxCell>
        <mxCell id="ksyCokjNtOuHgGahdS1c-75" value="apakah nama&amp;nbsp;&lt;br&gt;mahasiswa terdaftar?" style="rhombus;whiteSpace=wrap;html=1;" parent="1" vertex="1">
          <mxGeometry x="1247" y="1071.25" width="137.5" height="137.5" as="geometry" />
        </mxCell>
        <mxCell id="ksyCokjNtOuHgGahdS1c-77" value="" style="edgeStyle=orthogonalEdgeStyle;rounded=0;orthogonalLoop=1;jettySize=auto;html=1;" parent="1" source="ksyCokjNtOuHgGahdS1c-78" target="ksyCokjNtOuHgGahdS1c-92" edge="1">
          <mxGeometry relative="1" as="geometry" />
        </mxCell>
        <mxCell id="ksyCokjNtOuHgGahdS1c-202" value="" style="edgeStyle=orthogonalEdgeStyle;rounded=0;orthogonalLoop=1;jettySize=auto;html=1;" parent="1" source="ksyCokjNtOuHgGahdS1c-78" target="ksyCokjNtOuHgGahdS1c-201" edge="1">
          <mxGeometry relative="1" as="geometry" />
        </mxCell>
        <mxCell id="ksyCokjNtOuHgGahdS1c-78" value="nomor = 3" style="rhombus;whiteSpace=wrap;html=1;" parent="1" vertex="1">
          <mxGeometry x="847" y="1483.5" width="120" height="115" as="geometry" />
        </mxCell>
        <mxCell id="ksyCokjNtOuHgGahdS1c-85" value="" style="endArrow=classic;html=1;rounded=0;" parent="1" target="ksyCokjNtOuHgGahdS1c-86" edge="1">
          <mxGeometry width="50" height="50" relative="1" as="geometry">
            <mxPoint x="907" y="980" as="sourcePoint" />
            <mxPoint x="906.1700000000001" y="985" as="targetPoint" />
          </mxGeometry>
        </mxCell>
        <mxCell id="JRqJ5GmoJPgniSZNuA87-51" value="" style="edgeStyle=orthogonalEdgeStyle;rounded=0;orthogonalLoop=1;jettySize=auto;html=1;" parent="1" source="ksyCokjNtOuHgGahdS1c-86" target="JRqJ5GmoJPgniSZNuA87-50" edge="1">
          <mxGeometry relative="1" as="geometry" />
        </mxCell>
        <mxCell id="ksyCokjNtOuHgGahdS1c-86" value="nomor =.1" style="rhombus;whiteSpace=wrap;html=1;" parent="1" vertex="1">
          <mxGeometry x="867" y="949.38" width="80" height="80" as="geometry" />
        </mxCell>
        <mxCell id="JRqJ5GmoJPgniSZNuA87-109" value="" style="edgeStyle=orthogonalEdgeStyle;rounded=0;orthogonalLoop=1;jettySize=auto;html=1;" parent="1" source="ksyCokjNtOuHgGahdS1c-89" target="JRqJ5GmoJPgniSZNuA87-108" edge="1">
          <mxGeometry relative="1" as="geometry" />
        </mxCell>
        <mxCell id="ksyCokjNtOuHgGahdS1c-89" value="proses editing Tanggal&lt;br&gt;peminjaman" style="whiteSpace=wrap;html=1;" parent="1" vertex="1">
          <mxGeometry x="1800" y="1511" width="120" height="60" as="geometry" />
        </mxCell>
        <mxCell id="ksyCokjNtOuHgGahdS1c-90" value="" style="edgeStyle=orthogonalEdgeStyle;rounded=0;orthogonalLoop=1;jettySize=auto;html=1;" parent="1" source="ksyCokjNtOuHgGahdS1c-92" target="ksyCokjNtOuHgGahdS1c-94" edge="1">
          <mxGeometry relative="1" as="geometry" />
        </mxCell>
        <mxCell id="JRqJ5GmoJPgniSZNuA87-129" value="" style="edgeStyle=orthogonalEdgeStyle;rounded=0;orthogonalLoop=1;jettySize=auto;html=1;" parent="1" source="ksyCokjNtOuHgGahdS1c-92" target="JRqJ5GmoJPgniSZNuA87-128" edge="1">
          <mxGeometry relative="1" as="geometry" />
        </mxCell>
        <mxCell id="ksyCokjNtOuHgGahdS1c-92" value="nomor = 4" style="rhombus;whiteSpace=wrap;html=1;" parent="1" vertex="1">
          <mxGeometry x="847" y="1745" width="120" height="115" as="geometry" />
        </mxCell>
        <mxCell id="ksyCokjNtOuHgGahdS1c-217" value="" style="edgeStyle=orthogonalEdgeStyle;rounded=0;orthogonalLoop=1;jettySize=auto;html=1;entryX=0;entryY=0.5;entryDx=0;entryDy=0;" parent="1" source="ksyCokjNtOuHgGahdS1c-94" target="ksyCokjNtOuHgGahdS1c-216" edge="1">
          <mxGeometry relative="1" as="geometry">
            <Array as="points">
              <mxPoint x="1140" y="1802" />
            </Array>
          </mxGeometry>
        </mxCell>
        <mxCell id="ksyCokjNtOuHgGahdS1c-94" value="masukkan nama&amp;nbsp;&lt;br&gt;peminjam" style="shape=parallelogram;perimeter=parallelogramPerimeter;whiteSpace=wrap;html=1;fixedSize=1;" parent="1" vertex="1">
          <mxGeometry x="1011" y="1772.5" width="119" height="60" as="geometry" />
        </mxCell>
        <mxCell id="ksyCokjNtOuHgGahdS1c-107" value="tampilkan data peminjaman yang sedang aktif" style="shape=parallelogram;perimeter=parallelogramPerimeter;whiteSpace=wrap;html=1;fixedSize=1;" parent="1" vertex="1">
          <mxGeometry x="1357" y="959.38" width="120" height="60" as="geometry" />
        </mxCell>
        <mxCell id="ksyCokjNtOuHgGahdS1c-115" style="edgeStyle=orthogonalEdgeStyle;rounded=0;orthogonalLoop=1;jettySize=auto;html=1;entryX=0;entryY=0.5;entryDx=0;entryDy=0;" parent="1" source="ksyCokjNtOuHgGahdS1c-113" target="o1DuDizpJcU1cGeXtoII-6" edge="1">
          <mxGeometry relative="1" as="geometry">
            <Array as="points">
              <mxPoint x="40" y="1090" />
              <mxPoint x="40" y="335" />
            </Array>
          </mxGeometry>
        </mxCell>
        <mxCell id="ksyCokjNtOuHgGahdS1c-113" value="Masukkan angka yang valid" style="whiteSpace=wrap;html=1;" parent="1" vertex="1">
          <mxGeometry x="130" y="1059" width="120" height="60" as="geometry" />
        </mxCell>
        <mxCell id="ksyCokjNtOuHgGahdS1c-124" value="&lt;span style=&quot;color: rgb(0, 0, 0); font-family: Helvetica; font-size: 12px; font-style: normal; font-variant-ligatures: normal; font-variant-caps: normal; font-weight: 400; letter-spacing: normal; orphans: 2; text-align: center; text-indent: 0px; text-transform: none; widows: 2; word-spacing: 0px; -webkit-text-stroke-width: 0px; background-color: rgb(251, 251, 251); text-decoration-thickness: initial; text-decoration-style: initial; text-decoration-color: initial; float: none; display: inline !important;&quot;&gt;mahasiswa tidak terdaftar&lt;/span&gt;" style="shape=parallelogram;perimeter=parallelogramPerimeter;whiteSpace=wrap;html=1;fixedSize=1;" parent="1" vertex="1">
          <mxGeometry x="1238.5" y="1640" width="120" height="60" as="geometry" />
        </mxCell>
        <mxCell id="ksyCokjNtOuHgGahdS1c-126" value="YES" style="text;html=1;strokeColor=none;fillColor=none;align=center;verticalAlign=middle;whiteSpace=wrap;rounded=0;" parent="1" vertex="1">
          <mxGeometry x="947" y="946" width="60" height="30" as="geometry" />
        </mxCell>
        <mxCell id="ksyCokjNtOuHgGahdS1c-128" value="YES" style="text;html=1;strokeColor=none;fillColor=none;align=center;verticalAlign=middle;whiteSpace=wrap;rounded=0;" parent="1" vertex="1">
          <mxGeometry x="954.5" y="1109" width="60" height="30" as="geometry" />
        </mxCell>
        <mxCell id="ksyCokjNtOuHgGahdS1c-129" value="YES" style="text;html=1;strokeColor=none;fillColor=none;align=center;verticalAlign=middle;whiteSpace=wrap;rounded=0;" parent="1" vertex="1">
          <mxGeometry x="964.5" y="1483" width="60" height="30" as="geometry" />
        </mxCell>
        <mxCell id="ksyCokjNtOuHgGahdS1c-130" value="YES" style="text;html=1;strokeColor=none;fillColor=none;align=center;verticalAlign=middle;whiteSpace=wrap;rounded=0;" parent="1" vertex="1">
          <mxGeometry x="965.5" y="1772" width="60" height="30" as="geometry" />
        </mxCell>
        <mxCell id="ksyCokjNtOuHgGahdS1c-131" value="YES" style="text;html=1;align=center;verticalAlign=middle;resizable=0;points=[];autosize=1;strokeColor=none;fillColor=none;" parent="1" vertex="1">
          <mxGeometry x="240" y="490" width="50" height="30" as="geometry" />
        </mxCell>
        <mxCell id="ksyCokjNtOuHgGahdS1c-132" value="YES" style="text;html=1;align=center;verticalAlign=middle;resizable=0;points=[];autosize=1;strokeColor=none;fillColor=none;" parent="1" vertex="1">
          <mxGeometry x="240" y="641" width="50" height="30" as="geometry" />
        </mxCell>
        <mxCell id="ksyCokjNtOuHgGahdS1c-133" value="YES" style="text;html=1;align=center;verticalAlign=middle;resizable=0;points=[];autosize=1;strokeColor=none;fillColor=none;" parent="1" vertex="1">
          <mxGeometry x="245" y="788" width="50" height="30" as="geometry" />
        </mxCell>
        <mxCell id="ksyCokjNtOuHgGahdS1c-134" value="YES" style="text;html=1;align=center;verticalAlign=middle;resizable=0;points=[];autosize=1;strokeColor=none;fillColor=none;" parent="1" vertex="1">
          <mxGeometry x="245" y="938" width="50" height="30" as="geometry" />
        </mxCell>
        <mxCell id="ksyCokjNtOuHgGahdS1c-136" value="NO" style="text;html=1;align=center;verticalAlign=middle;resizable=0;points=[];autosize=1;strokeColor=none;fillColor=none;" parent="1" vertex="1">
          <mxGeometry x="1677" y="1114.5" width="40" height="30" as="geometry" />
        </mxCell>
        <mxCell id="ksyCokjNtOuHgGahdS1c-137" value="YES" style="text;html=1;align=center;verticalAlign=middle;resizable=0;points=[];autosize=1;strokeColor=none;fillColor=none;" parent="1" vertex="1">
          <mxGeometry x="1374.5" y="1109" width="50" height="30" as="geometry" />
        </mxCell>
        <mxCell id="ksyCokjNtOuHgGahdS1c-138" value="YES" style="text;html=1;align=center;verticalAlign=middle;resizable=0;points=[];autosize=1;strokeColor=none;fillColor=none;" parent="1" vertex="1">
          <mxGeometry x="2412" y="1311" width="50" height="30" as="geometry" />
        </mxCell>
        <mxCell id="ksyCokjNtOuHgGahdS1c-139" value="YES" style="text;html=1;align=center;verticalAlign=middle;resizable=0;points=[];autosize=1;strokeColor=none;fillColor=none;" parent="1" vertex="1">
          <mxGeometry x="2412" y="1073" width="50" height="30" as="geometry" />
        </mxCell>
        <mxCell id="ksyCokjNtOuHgGahdS1c-140" value="YES" style="text;html=1;align=center;verticalAlign=middle;resizable=0;points=[];autosize=1;strokeColor=none;fillColor=none;" parent="1" vertex="1">
          <mxGeometry x="2415" y="848" width="50" height="30" as="geometry" />
        </mxCell>
        <mxCell id="ksyCokjNtOuHgGahdS1c-141" value="YES" style="text;html=1;align=center;verticalAlign=middle;resizable=0;points=[];autosize=1;strokeColor=none;fillColor=none;" parent="1" vertex="1">
          <mxGeometry x="2412" y="751" width="50" height="30" as="geometry" />
        </mxCell>
        <mxCell id="ksyCokjNtOuHgGahdS1c-142" value="NO" style="text;html=1;align=center;verticalAlign=middle;resizable=0;points=[];autosize=1;strokeColor=none;fillColor=none;" parent="1" vertex="1">
          <mxGeometry x="2457" y="1588" width="40" height="30" as="geometry" />
        </mxCell>
        <mxCell id="ksyCokjNtOuHgGahdS1c-150" value="" style="edgeStyle=orthogonalEdgeStyle;rounded=0;orthogonalLoop=1;jettySize=auto;html=1;" parent="1" source="ksyCokjNtOuHgGahdS1c-145" target="ksyCokjNtOuHgGahdS1c-149" edge="1">
          <mxGeometry relative="1" as="geometry" />
        </mxCell>
        <mxCell id="ksyCokjNtOuHgGahdS1c-145" value="Masukkan&lt;br&gt;isbn buku" style="shape=parallelogram;perimeter=parallelogramPerimeter;whiteSpace=wrap;html=1;fixedSize=1;" parent="1" vertex="1">
          <mxGeometry x="2462" y="850.5" width="120" height="60" as="geometry" />
        </mxCell>
        <mxCell id="ksyCokjNtOuHgGahdS1c-161" style="edgeStyle=orthogonalEdgeStyle;rounded=0;orthogonalLoop=1;jettySize=auto;html=1;entryX=0;entryY=0.5;entryDx=0;entryDy=0;" parent="1" source="ksyCokjNtOuHgGahdS1c-149" target="dfl-2LmNSql80xYp9Fll-20" edge="1">
          <mxGeometry relative="1" as="geometry">
            <mxPoint x="2849.9999999999995" y="980.0000000000002" as="targetPoint" />
            <Array as="points">
              <mxPoint x="2780" y="980" />
            </Array>
          </mxGeometry>
        </mxCell>
        <mxCell id="ksyCokjNtOuHgGahdS1c-149" value="isbn sudah tersedia?" style="rhombus;whiteSpace=wrap;html=1;" parent="1" vertex="1">
          <mxGeometry x="2740" y="840.5" width="80" height="80" as="geometry" />
        </mxCell>
        <mxCell id="ksyCokjNtOuHgGahdS1c-166" value="" style="edgeStyle=orthogonalEdgeStyle;rounded=0;orthogonalLoop=1;jettySize=auto;html=1;" parent="1" source="ksyCokjNtOuHgGahdS1c-151" target="ksyCokjNtOuHgGahdS1c-165" edge="1">
          <mxGeometry relative="1" as="geometry" />
        </mxCell>
        <mxCell id="ksyCokjNtOuHgGahdS1c-151" value="Masukkan&lt;br&gt;isbn buku" style="shape=parallelogram;perimeter=parallelogramPerimeter;whiteSpace=wrap;html=1;fixedSize=1;" parent="1" vertex="1">
          <mxGeometry x="2471" y="1074.5" width="120" height="60" as="geometry" />
        </mxCell>
        <mxCell id="ksyCokjNtOuHgGahdS1c-167" value="" style="edgeStyle=orthogonalEdgeStyle;rounded=0;orthogonalLoop=1;jettySize=auto;html=1;" parent="1" source="ksyCokjNtOuHgGahdS1c-165" target="tfR2QfWA8c1eJMqMdNpU-37" edge="1">
          <mxGeometry relative="1" as="geometry" />
        </mxCell>
        <mxCell id="ksyCokjNtOuHgGahdS1c-192" value="" style="edgeStyle=orthogonalEdgeStyle;rounded=0;orthogonalLoop=1;jettySize=auto;html=1;" parent="1" source="ksyCokjNtOuHgGahdS1c-165" target="ksyCokjNtOuHgGahdS1c-191" edge="1">
          <mxGeometry relative="1" as="geometry" />
        </mxCell>
        <mxCell id="ksyCokjNtOuHgGahdS1c-165" value="isbn sudah tersedia?" style="rhombus;whiteSpace=wrap;html=1;" parent="1" vertex="1">
          <mxGeometry x="2691" y="1064.5" width="80" height="80" as="geometry" />
        </mxCell>
        <mxCell id="dfl-2LmNSql80xYp9Fll-28" value="" style="edgeStyle=orthogonalEdgeStyle;rounded=0;orthogonalLoop=1;jettySize=auto;html=1;" edge="1" parent="1" source="ksyCokjNtOuHgGahdS1c-169" target="dfl-2LmNSql80xYp9Fll-27">
          <mxGeometry relative="1" as="geometry" />
        </mxCell>
        <mxCell id="ksyCokjNtOuHgGahdS1c-169" value="apakah anda &lt;br&gt;yakin untuk mengganti data buku" style="rhombus;whiteSpace=wrap;html=1;" parent="1" vertex="1">
          <mxGeometry x="3030" y="1034.5" width="140" height="140" as="geometry" />
        </mxCell>
        <mxCell id="ksyCokjNtOuHgGahdS1c-178" value="" style="edgeStyle=orthogonalEdgeStyle;rounded=0;orthogonalLoop=1;jettySize=auto;html=1;" parent="1" source="ksyCokjNtOuHgGahdS1c-175" target="ksyCokjNtOuHgGahdS1c-177" edge="1">
          <mxGeometry relative="1" as="geometry" />
        </mxCell>
        <mxCell id="ksyCokjNtOuHgGahdS1c-175" value="Masukkan&lt;br&gt;isbn" style="shape=parallelogram;perimeter=parallelogramPerimeter;whiteSpace=wrap;html=1;fixedSize=1;" parent="1" vertex="1">
          <mxGeometry x="2482" y="1313" width="120" height="60" as="geometry" />
        </mxCell>
        <mxCell id="ksyCokjNtOuHgGahdS1c-180" value="" style="edgeStyle=orthogonalEdgeStyle;rounded=0;orthogonalLoop=1;jettySize=auto;html=1;" parent="1" source="ksyCokjNtOuHgGahdS1c-177" target="ksyCokjNtOuHgGahdS1c-179" edge="1">
          <mxGeometry relative="1" as="geometry" />
        </mxCell>
        <mxCell id="ksyCokjNtOuHgGahdS1c-177" value="Apakah&lt;br&gt;isbn tersedia?" style="rhombus;whiteSpace=wrap;html=1;" parent="1" vertex="1">
          <mxGeometry x="2691" y="1294.5" width="102" height="97" as="geometry" />
        </mxCell>
        <mxCell id="ksyCokjNtOuHgGahdS1c-179" value="buku sedang dipinjam?" style="rhombus;whiteSpace=wrap;html=1;" parent="1" vertex="1">
          <mxGeometry x="2850" y="1296.5" width="92" height="93" as="geometry" />
        </mxCell>
        <mxCell id="ksyCokjNtOuHgGahdS1c-184" value="&lt;font style=&quot;font-size: 10px;&quot;&gt;proses penghapusan &lt;br&gt;tidak dapat dilakukan&lt;/font&gt;" style="shape=parallelogram;perimeter=parallelogramPerimeter;whiteSpace=wrap;html=1;fixedSize=1;" parent="1" vertex="1">
          <mxGeometry x="2925" y="1440" width="130" height="60" as="geometry" />
        </mxCell>
        <mxCell id="ksyCokjNtOuHgGahdS1c-188" value="YES" style="text;html=1;align=center;verticalAlign=middle;resizable=0;points=[];autosize=1;strokeColor=none;fillColor=none;" parent="1" vertex="1">
          <mxGeometry x="2791" y="1315.5" width="50" height="30" as="geometry" />
        </mxCell>
        <mxCell id="ksyCokjNtOuHgGahdS1c-189" value="NO" style="text;html=1;align=center;verticalAlign=middle;resizable=0;points=[];autosize=1;strokeColor=none;fillColor=none;" parent="1" vertex="1">
          <mxGeometry x="2950" y="1315.5" width="40" height="30" as="geometry" />
        </mxCell>
        <mxCell id="ksyCokjNtOuHgGahdS1c-190" value="YES" style="text;html=1;align=center;verticalAlign=middle;resizable=0;points=[];autosize=1;strokeColor=none;fillColor=none;" parent="1" vertex="1">
          <mxGeometry x="2900" y="1391.5" width="50" height="30" as="geometry" />
        </mxCell>
        <mxCell id="ksyCokjNtOuHgGahdS1c-193" value="" style="edgeStyle=orthogonalEdgeStyle;rounded=0;orthogonalLoop=1;jettySize=auto;html=1;" parent="1" source="ksyCokjNtOuHgGahdS1c-191" target="ksyCokjNtOuHgGahdS1c-169" edge="1">
          <mxGeometry relative="1" as="geometry" />
        </mxCell>
        <mxCell id="ksyCokjNtOuHgGahdS1c-191" value="&#xa;&lt;span style=&quot;color: rgb(0, 0, 0); font-family: Helvetica; font-size: 12px; font-style: normal; font-variant-ligatures: normal; font-variant-caps: normal; font-weight: 400; letter-spacing: normal; orphans: 2; text-align: center; text-indent: 0px; text-transform: none; widows: 2; word-spacing: 0px; -webkit-text-stroke-width: 0px; background-color: rgb(251, 251, 251); text-decoration-thickness: initial; text-decoration-style: initial; text-decoration-color: initial; float: none; display: inline !important;&quot;&gt;masukkan&lt;/span&gt;&lt;br style=&quot;border-color: var(--border-color); color: rgb(0, 0, 0); font-family: Helvetica; font-size: 12px; font-style: normal; font-variant-ligatures: normal; font-variant-caps: normal; font-weight: 400; letter-spacing: normal; orphans: 2; text-align: center; text-indent: 0px; text-transform: none; widows: 2; word-spacing: 0px; -webkit-text-stroke-width: 0px; background-color: rgb(251, 251, 251); text-decoration-thickness: initial; text-decoration-style: initial; text-decoration-color: initial;&quot;&gt;&lt;span style=&quot;color: rgb(0, 0, 0); font-family: Helvetica; font-size: 12px; font-style: normal; font-variant-ligatures: normal; font-variant-caps: normal; font-weight: 400; letter-spacing: normal; orphans: 2; text-align: center; text-indent: 0px; text-transform: none; widows: 2; word-spacing: 0px; -webkit-text-stroke-width: 0px; background-color: rgb(251, 251, 251); text-decoration-thickness: initial; text-decoration-style: initial; text-decoration-color: initial; float: none; display: inline !important;&quot;&gt;&amp;nbsp;judul buku&lt;/span&gt;&lt;br style=&quot;border-color: var(--border-color); color: rgb(0, 0, 0); font-family: Helvetica; font-size: 12px; font-style: normal; font-variant-ligatures: normal; font-variant-caps: normal; font-weight: 400; letter-spacing: normal; orphans: 2; text-align: center; text-indent: 0px; text-transform: none; widows: 2; word-spacing: 0px; -webkit-text-stroke-width: 0px; background-color: rgb(251, 251, 251); text-decoration-thickness: initial; text-decoration-style: initial; text-decoration-color: initial;&quot;&gt;&lt;span style=&quot;color: rgb(0, 0, 0); font-family: Helvetica; font-size: 12px; font-style: normal; font-variant-ligatures: normal; font-variant-caps: normal; font-weight: 400; letter-spacing: normal; orphans: 2; text-align: center; text-indent: 0px; text-transform: none; widows: 2; word-spacing: 0px; -webkit-text-stroke-width: 0px; background-color: rgb(251, 251, 251); text-decoration-thickness: initial; text-decoration-style: initial; text-decoration-color: initial; float: none; display: inline !important;&quot;&gt;tahun terbit&lt;/span&gt;&lt;br style=&quot;border-color: var(--border-color); color: rgb(0, 0, 0); font-family: Helvetica; font-size: 12px; font-style: normal; font-variant-ligatures: normal; font-variant-caps: normal; font-weight: 400; letter-spacing: normal; orphans: 2; text-align: center; text-indent: 0px; text-transform: none; widows: 2; word-spacing: 0px; -webkit-text-stroke-width: 0px; background-color: rgb(251, 251, 251); text-decoration-thickness: initial; text-decoration-style: initial; text-decoration-color: initial;&quot;&gt;&lt;span style=&quot;color: rgb(0, 0, 0); font-family: Helvetica; font-size: 12px; font-style: normal; font-variant-ligatures: normal; font-variant-caps: normal; font-weight: 400; letter-spacing: normal; orphans: 2; text-align: center; text-indent: 0px; text-transform: none; widows: 2; word-spacing: 0px; -webkit-text-stroke-width: 0px; background-color: rgb(251, 251, 251); text-decoration-thickness: initial; text-decoration-style: initial; text-decoration-color: initial; float: none; display: inline !important;&quot;&gt;penerbit&lt;/span&gt;&lt;br style=&quot;border-color: var(--border-color); color: rgb(0, 0, 0); font-family: Helvetica; font-size: 12px; font-style: normal; font-variant-ligatures: normal; font-variant-caps: normal; font-weight: 400; letter-spacing: normal; orphans: 2; text-align: center; text-indent: 0px; text-transform: none; widows: 2; word-spacing: 0px; -webkit-text-stroke-width: 0px; background-color: rgb(251, 251, 251); text-decoration-thickness: initial; text-decoration-style: initial; text-decoration-color: initial;&quot;&gt;&lt;span style=&quot;color: rgb(0, 0, 0); font-family: Helvetica; font-size: 12px; font-style: normal; font-variant-ligatures: normal; font-variant-caps: normal; font-weight: 400; letter-spacing: normal; orphans: 2; text-align: center; text-indent: 0px; text-transform: none; widows: 2; word-spacing: 0px; -webkit-text-stroke-width: 0px; background-color: rgb(251, 251, 251); text-decoration-thickness: initial; text-decoration-style: initial; text-decoration-color: initial; float: none; display: inline !important;&quot;&gt;stok buku&lt;/span&gt;&#xa;&#xa;" style="shape=parallelogram;perimeter=parallelogramPerimeter;whiteSpace=wrap;html=1;fixedSize=1;" parent="1" vertex="1">
          <mxGeometry x="2839" y="1057" width="160" height="94.25" as="geometry" />
        </mxCell>
        <mxCell id="ksyCokjNtOuHgGahdS1c-194" value="YES" style="text;html=1;align=center;verticalAlign=middle;resizable=0;points=[];autosize=1;strokeColor=none;fillColor=none;" parent="1" vertex="1">
          <mxGeometry x="2761" y="1073" width="50" height="30" as="geometry" />
        </mxCell>
        <mxCell id="ksyCokjNtOuHgGahdS1c-195" value="NO" style="text;html=1;align=center;verticalAlign=middle;resizable=0;points=[];autosize=1;strokeColor=none;fillColor=none;" parent="1" vertex="1">
          <mxGeometry x="2730" y="1147" width="40" height="30" as="geometry" />
        </mxCell>
        <mxCell id="ksyCokjNtOuHgGahdS1c-196" value="YES" style="text;html=1;align=center;verticalAlign=middle;resizable=0;points=[];autosize=1;strokeColor=none;fillColor=none;" parent="1" vertex="1">
          <mxGeometry x="3162.5" y="1072.63" width="50" height="30" as="geometry" />
        </mxCell>
        <mxCell id="ksyCokjNtOuHgGahdS1c-197" value="NO" style="text;html=1;align=center;verticalAlign=middle;resizable=0;points=[];autosize=1;strokeColor=none;fillColor=none;" parent="1" vertex="1">
          <mxGeometry x="3100" y="1160.94" width="40" height="30" as="geometry" />
        </mxCell>
        <mxCell id="ksyCokjNtOuHgGahdS1c-198" value="NO" style="text;html=1;align=center;verticalAlign=middle;resizable=0;points=[];autosize=1;strokeColor=none;fillColor=none;" parent="1" vertex="1">
          <mxGeometry x="2753" y="1409.25" width="40" height="30" as="geometry" />
        </mxCell>
        <mxCell id="ksyCokjNtOuHgGahdS1c-199" value="YES" style="text;html=1;align=center;verticalAlign=middle;resizable=0;points=[];autosize=1;strokeColor=none;fillColor=none;" parent="1" vertex="1">
          <mxGeometry x="2810" y="848" width="50" height="30" as="geometry" />
        </mxCell>
        <mxCell id="ksyCokjNtOuHgGahdS1c-200" value="NO" style="text;html=1;align=center;verticalAlign=middle;resizable=0;points=[];autosize=1;strokeColor=none;fillColor=none;" parent="1" vertex="1">
          <mxGeometry x="2775" y="919.38" width="40" height="30" as="geometry" />
        </mxCell>
        <mxCell id="JRqJ5GmoJPgniSZNuA87-99" value="" style="edgeStyle=orthogonalEdgeStyle;rounded=0;orthogonalLoop=1;jettySize=auto;html=1;" parent="1" source="ksyCokjNtOuHgGahdS1c-201" target="ksyCokjNtOuHgGahdS1c-205" edge="1">
          <mxGeometry relative="1" as="geometry" />
        </mxCell>
        <mxCell id="ksyCokjNtOuHgGahdS1c-201" value="Masukkan&lt;br&gt;nama mahasiswa" style="shape=parallelogram;perimeter=parallelogramPerimeter;whiteSpace=wrap;html=1;fixedSize=1;" parent="1" vertex="1">
          <mxGeometry x="1049.5" y="1510" width="120" height="60" as="geometry" />
        </mxCell>
        <mxCell id="ksyCokjNtOuHgGahdS1c-208" value="" style="edgeStyle=orthogonalEdgeStyle;rounded=0;orthogonalLoop=1;jettySize=auto;html=1;" parent="1" source="ksyCokjNtOuHgGahdS1c-205" target="ksyCokjNtOuHgGahdS1c-124" edge="1">
          <mxGeometry relative="1" as="geometry" />
        </mxCell>
        <mxCell id="JRqJ5GmoJPgniSZNuA87-105" value="" style="edgeStyle=orthogonalEdgeStyle;rounded=0;orthogonalLoop=1;jettySize=auto;html=1;" parent="1" source="ksyCokjNtOuHgGahdS1c-205" target="JRqJ5GmoJPgniSZNuA87-103" edge="1">
          <mxGeometry relative="1" as="geometry" />
        </mxCell>
        <mxCell id="ksyCokjNtOuHgGahdS1c-205" value="Apakah&lt;br&gt;mahasiswa terdaftar?" style="rhombus;whiteSpace=wrap;html=1;" parent="1" vertex="1">
          <mxGeometry x="1242" y="1488.25" width="113" height="103.5" as="geometry" />
        </mxCell>
        <mxCell id="ksyCokjNtOuHgGahdS1c-220" value="" style="edgeStyle=orthogonalEdgeStyle;rounded=0;orthogonalLoop=1;jettySize=auto;html=1;" parent="1" source="ksyCokjNtOuHgGahdS1c-216" target="ksyCokjNtOuHgGahdS1c-221" edge="1">
          <mxGeometry relative="1" as="geometry">
            <mxPoint x="1204.8" y="1982.25" as="targetPoint" />
          </mxGeometry>
        </mxCell>
        <mxCell id="JRqJ5GmoJPgniSZNuA87-115" value="" style="edgeStyle=orthogonalEdgeStyle;rounded=0;orthogonalLoop=1;jettySize=auto;html=1;" parent="1" source="JRqJ5GmoJPgniSZNuA87-135" target="JRqJ5GmoJPgniSZNuA87-114" edge="1">
          <mxGeometry relative="1" as="geometry" />
        </mxCell>
        <mxCell id="ksyCokjNtOuHgGahdS1c-216" value="Apakah &lt;br&gt;mahasiswa&lt;br&gt;Sedang meminjam&lt;br&gt;buku?" style="rhombus;whiteSpace=wrap;html=1;" parent="1" vertex="1">
          <mxGeometry x="1135" y="1737.75" width="140" height="129.5" as="geometry" />
        </mxCell>
        <mxCell id="dfl-2LmNSql80xYp9Fll-46" style="edgeStyle=orthogonalEdgeStyle;rounded=0;orthogonalLoop=1;jettySize=auto;html=1;" edge="1" parent="1" source="ksyCokjNtOuHgGahdS1c-221">
          <mxGeometry relative="1" as="geometry">
            <mxPoint x="2350" y="1948" as="targetPoint" />
          </mxGeometry>
        </mxCell>
        <mxCell id="ksyCokjNtOuHgGahdS1c-221" value="mahasiswa tidak terdaftar" style="shape=parallelogram;perimeter=parallelogramPerimeter;whiteSpace=wrap;html=1;fixedSize=1;" parent="1" vertex="1">
          <mxGeometry x="1145" y="1918" width="120" height="60" as="geometry" />
        </mxCell>
        <mxCell id="ksyCokjNtOuHgGahdS1c-232" value="YES" style="text;html=1;align=center;verticalAlign=middle;resizable=0;points=[];autosize=1;strokeColor=none;fillColor=none;" parent="1" vertex="1">
          <mxGeometry x="4087" y="950" width="50" height="30" as="geometry" />
        </mxCell>
        <mxCell id="ksyCokjNtOuHgGahdS1c-233" value="NO" style="text;html=1;align=center;verticalAlign=middle;resizable=0;points=[];autosize=1;strokeColor=none;fillColor=none;" parent="1" vertex="1">
          <mxGeometry x="4047" y="1070" width="40" height="30" as="geometry" />
        </mxCell>
        <mxCell id="ksyCokjNtOuHgGahdS1c-234" value="YES" style="text;html=1;align=center;verticalAlign=middle;resizable=0;points=[];autosize=1;strokeColor=none;fillColor=none;" parent="1" vertex="1">
          <mxGeometry x="4407" y="955" width="50" height="30" as="geometry" />
        </mxCell>
        <mxCell id="ksyCokjNtOuHgGahdS1c-235" value="NO" style="text;html=1;align=center;verticalAlign=middle;resizable=0;points=[];autosize=1;strokeColor=none;fillColor=none;" parent="1" vertex="1">
          <mxGeometry x="4400" y="1020.5" width="40" height="30" as="geometry" />
        </mxCell>
        <mxCell id="ksyCokjNtOuHgGahdS1c-236" value="YES" style="text;html=1;align=center;verticalAlign=middle;resizable=0;points=[];autosize=1;strokeColor=none;fillColor=none;" parent="1" vertex="1">
          <mxGeometry x="4350" y="1208" width="50" height="30" as="geometry" />
        </mxCell>
        <mxCell id="ksyCokjNtOuHgGahdS1c-237" value="NO" style="text;html=1;align=center;verticalAlign=middle;resizable=0;points=[];autosize=1;strokeColor=none;fillColor=none;" parent="1" vertex="1">
          <mxGeometry x="4302" y="1337" width="40" height="30" as="geometry" />
        </mxCell>
        <mxCell id="ksyCokjNtOuHgGahdS1c-238" value="YES" style="text;html=1;align=center;verticalAlign=middle;resizable=0;points=[];autosize=1;strokeColor=none;fillColor=none;" parent="1" vertex="1">
          <mxGeometry x="4197" y="738" width="50" height="30" as="geometry" />
        </mxCell>
        <mxCell id="ksyCokjNtOuHgGahdS1c-239" value="NO" style="text;html=1;align=center;verticalAlign=middle;resizable=0;points=[];autosize=1;strokeColor=none;fillColor=none;" parent="1" vertex="1">
          <mxGeometry x="4087" y="826" width="40" height="30" as="geometry" />
        </mxCell>
        <mxCell id="ksyCokjNtOuHgGahdS1c-240" value="NO" style="text;html=1;align=center;verticalAlign=middle;resizable=0;points=[];autosize=1;strokeColor=none;fillColor=none;" parent="1" vertex="1">
          <mxGeometry x="2390" y="818" width="40" height="30" as="geometry" />
        </mxCell>
        <mxCell id="ksyCokjNtOuHgGahdS1c-241" value="NO" style="text;html=1;align=center;verticalAlign=middle;resizable=0;points=[];autosize=1;strokeColor=none;fillColor=none;" parent="1" vertex="1">
          <mxGeometry x="2390" y="916" width="40" height="30" as="geometry" />
        </mxCell>
        <mxCell id="ksyCokjNtOuHgGahdS1c-242" value="NO" style="text;html=1;align=center;verticalAlign=middle;resizable=0;points=[];autosize=1;strokeColor=none;fillColor=none;" parent="1" vertex="1">
          <mxGeometry x="2390" y="1138" width="40" height="30" as="geometry" />
        </mxCell>
        <mxCell id="ksyCokjNtOuHgGahdS1c-243" value="NO" style="text;html=1;align=center;verticalAlign=middle;resizable=0;points=[];autosize=1;strokeColor=none;fillColor=none;" parent="1" vertex="1">
          <mxGeometry x="2385" y="1382" width="40" height="30" as="geometry" />
        </mxCell>
        <mxCell id="ksyCokjNtOuHgGahdS1c-244" value="YES" style="text;html=1;align=center;verticalAlign=middle;resizable=0;points=[];autosize=1;strokeColor=none;fillColor=none;" parent="1" vertex="1">
          <mxGeometry x="2402" y="1670" width="50" height="30" as="geometry" />
        </mxCell>
        <mxCell id="ksyCokjNtOuHgGahdS1c-245" value="YES" style="text;html=1;align=center;verticalAlign=middle;resizable=0;points=[];autosize=1;strokeColor=none;fillColor=none;" parent="1" vertex="1">
          <mxGeometry x="1385" y="1501.75" width="50" height="30" as="geometry" />
        </mxCell>
        <mxCell id="ksyCokjNtOuHgGahdS1c-246" value="NO" style="text;html=1;align=center;verticalAlign=middle;resizable=0;points=[];autosize=1;strokeColor=none;fillColor=none;" parent="1" vertex="1">
          <mxGeometry x="1310" y="1598.5" width="40" height="30" as="geometry" />
        </mxCell>
        <mxCell id="ksyCokjNtOuHgGahdS1c-247" value="YES" style="text;html=1;align=center;verticalAlign=middle;resizable=0;points=[];autosize=1;strokeColor=none;fillColor=none;" parent="1" vertex="1">
          <mxGeometry x="1292" y="1772" width="50" height="30" as="geometry" />
        </mxCell>
        <mxCell id="ksyCokjNtOuHgGahdS1c-248" value="NO" style="text;html=1;align=center;verticalAlign=middle;resizable=0;points=[];autosize=1;strokeColor=none;fillColor=none;" parent="1" vertex="1">
          <mxGeometry x="1207" y="1888" width="40" height="30" as="geometry" />
        </mxCell>
        <mxCell id="ksyCokjNtOuHgGahdS1c-253" value="NO" style="text;html=1;align=center;verticalAlign=middle;resizable=0;points=[];autosize=1;strokeColor=none;fillColor=none;" parent="1" vertex="1">
          <mxGeometry x="910" y="1858" width="40" height="30" as="geometry" />
        </mxCell>
        <mxCell id="ksyCokjNtOuHgGahdS1c-254" value="NO" style="text;html=1;align=center;verticalAlign=middle;resizable=0;points=[];autosize=1;strokeColor=none;fillColor=none;" parent="1" vertex="1">
          <mxGeometry x="930.5" y="1588" width="40" height="30" as="geometry" />
        </mxCell>
        <mxCell id="ksyCokjNtOuHgGahdS1c-255" value="NO" style="text;html=1;align=center;verticalAlign=middle;resizable=0;points=[];autosize=1;strokeColor=none;fillColor=none;" parent="1" vertex="1">
          <mxGeometry x="900" y="1188" width="40" height="30" as="geometry" />
        </mxCell>
        <mxCell id="ksyCokjNtOuHgGahdS1c-256" value="NO" style="text;html=1;align=center;verticalAlign=middle;resizable=0;points=[];autosize=1;strokeColor=none;fillColor=none;" parent="1" vertex="1">
          <mxGeometry x="900" y="1028" width="40" height="30" as="geometry" />
        </mxCell>
        <mxCell id="ksyCokjNtOuHgGahdS1c-257" value="NO" style="text;html=1;align=center;verticalAlign=middle;resizable=0;points=[];autosize=1;strokeColor=none;fillColor=none;" parent="1" vertex="1">
          <mxGeometry x="1315" y="1217.5" width="40" height="30" as="geometry" />
        </mxCell>
        <mxCell id="ksyCokjNtOuHgGahdS1c-258" value="YES" style="text;html=1;align=center;verticalAlign=middle;resizable=0;points=[];autosize=1;strokeColor=none;fillColor=none;" parent="1" vertex="1">
          <mxGeometry x="1585" y="1228" width="50" height="30" as="geometry" />
        </mxCell>
        <mxCell id="ksyCokjNtOuHgGahdS1c-259" value="NO" style="text;html=1;align=center;verticalAlign=middle;resizable=0;points=[];autosize=1;strokeColor=none;fillColor=none;" parent="1" vertex="1">
          <mxGeometry x="200" y="578" width="40" height="30" as="geometry" />
        </mxCell>
        <mxCell id="ksyCokjNtOuHgGahdS1c-260" value="NO" style="text;html=1;align=center;verticalAlign=middle;resizable=0;points=[];autosize=1;strokeColor=none;fillColor=none;" parent="1" vertex="1">
          <mxGeometry x="190" y="728" width="40" height="30" as="geometry" />
        </mxCell>
        <mxCell id="ksyCokjNtOuHgGahdS1c-261" value="NO" style="text;html=1;align=center;verticalAlign=middle;resizable=0;points=[];autosize=1;strokeColor=none;fillColor=none;" parent="1" vertex="1">
          <mxGeometry x="190" y="878" width="40" height="30" as="geometry" />
        </mxCell>
        <mxCell id="ksyCokjNtOuHgGahdS1c-262" value="NO" style="text;html=1;align=center;verticalAlign=middle;resizable=0;points=[];autosize=1;strokeColor=none;fillColor=none;" parent="1" vertex="1">
          <mxGeometry x="190" y="1018" width="40" height="30" as="geometry" />
        </mxCell>
        <mxCell id="ksyCokjNtOuHgGahdS1c-263" value="YES" style="text;html=1;align=center;verticalAlign=middle;resizable=0;points=[];autosize=1;strokeColor=none;fillColor=none;" parent="1" vertex="1">
          <mxGeometry x="3772" y="598" width="50" height="30" as="geometry" />
        </mxCell>
        <mxCell id="ksyCokjNtOuHgGahdS1c-264" value="YES" style="text;html=1;align=center;verticalAlign=middle;resizable=0;points=[];autosize=1;strokeColor=none;fillColor=none;" parent="1" vertex="1">
          <mxGeometry x="3772" y="738" width="50" height="30" as="geometry" />
        </mxCell>
        <mxCell id="ksyCokjNtOuHgGahdS1c-265" value="YES" style="text;html=1;align=center;verticalAlign=middle;resizable=0;points=[];autosize=1;strokeColor=none;fillColor=none;" parent="1" vertex="1">
          <mxGeometry x="3767" y="955" width="50" height="30" as="geometry" />
        </mxCell>
        <mxCell id="ksyCokjNtOuHgGahdS1c-266" value="YES" style="text;html=1;align=center;verticalAlign=middle;resizable=0;points=[];autosize=1;strokeColor=none;fillColor=none;" parent="1" vertex="1">
          <mxGeometry x="3772" y="1218" width="50" height="30" as="geometry" />
        </mxCell>
        <mxCell id="ksyCokjNtOuHgGahdS1c-267" value="YES" style="text;html=1;align=center;verticalAlign=middle;resizable=0;points=[];autosize=1;strokeColor=none;fillColor=none;" parent="1" vertex="1">
          <mxGeometry x="3737" y="1531.75" width="50" height="30" as="geometry" />
        </mxCell>
        <mxCell id="ksyCokjNtOuHgGahdS1c-268" value="NO" style="text;html=1;align=center;verticalAlign=middle;resizable=0;points=[];autosize=1;strokeColor=none;fillColor=none;" parent="1" vertex="1">
          <mxGeometry x="3817" y="1450" width="40" height="30" as="geometry" />
        </mxCell>
        <mxCell id="ksyCokjNtOuHgGahdS1c-269" value="NO" style="text;html=1;align=center;verticalAlign=middle;resizable=0;points=[];autosize=1;strokeColor=none;fillColor=none;" parent="1" vertex="1">
          <mxGeometry x="3737" y="1288" width="40" height="30" as="geometry" />
        </mxCell>
        <mxCell id="ksyCokjNtOuHgGahdS1c-270" value="NO" style="text;html=1;align=center;verticalAlign=middle;resizable=0;points=[];autosize=1;strokeColor=none;fillColor=none;" parent="1" vertex="1">
          <mxGeometry x="3737" y="1028" width="40" height="30" as="geometry" />
        </mxCell>
        <mxCell id="ksyCokjNtOuHgGahdS1c-271" value="NO" style="text;html=1;align=center;verticalAlign=middle;resizable=0;points=[];autosize=1;strokeColor=none;fillColor=none;" parent="1" vertex="1">
          <mxGeometry x="3737" y="820.5" width="40" height="30" as="geometry" />
        </mxCell>
        <mxCell id="ksyCokjNtOuHgGahdS1c-272" value="NO" style="text;html=1;align=center;verticalAlign=middle;resizable=0;points=[];autosize=1;strokeColor=none;fillColor=none;" parent="1" vertex="1">
          <mxGeometry x="3737" y="658" width="40" height="30" as="geometry" />
        </mxCell>
        <mxCell id="AIB080mdf0gy7x4jEZcV-17" value="" style="edgeStyle=orthogonalEdgeStyle;rounded=0;orthogonalLoop=1;jettySize=auto;html=1;" parent="1" source="AIB080mdf0gy7x4jEZcV-18" target="AIB080mdf0gy7x4jEZcV-20" edge="1">
          <mxGeometry relative="1" as="geometry" />
        </mxCell>
        <mxCell id="AIB080mdf0gy7x4jEZcV-18" value="Deklarasi Array&lt;br&gt;data_history_peminjaman" style="shape=process;whiteSpace=wrap;html=1;backgroundOutline=1;" parent="1" vertex="1">
          <mxGeometry x="330" y="925" width="190" height="90" as="geometry" />
        </mxCell>
        <mxCell id="AIB080mdf0gy7x4jEZcV-19" value="" style="edgeStyle=orthogonalEdgeStyle;rounded=0;orthogonalLoop=1;jettySize=auto;html=1;" parent="1" source="AIB080mdf0gy7x4jEZcV-20" target="AIB080mdf0gy7x4jEZcV-21" edge="1">
          <mxGeometry relative="1" as="geometry" />
        </mxCell>
        <mxCell id="AIB080mdf0gy7x4jEZcV-20" value="i = len(data_history_peminjaman)" style="rounded=0;whiteSpace=wrap;html=1;" parent="1" vertex="1">
          <mxGeometry x="330" y="1050.5" width="190" height="100" as="geometry" />
        </mxCell>
        <mxCell id="AIB080mdf0gy7x4jEZcV-21" value="data = data_history_peminjaman[i]" style="rounded=0;whiteSpace=wrap;html=1;" parent="1" vertex="1">
          <mxGeometry x="330" y="1190.5" width="190" height="100" as="geometry" />
        </mxCell>
        <mxCell id="AIB080mdf0gy7x4jEZcV-22" value="" style="edgeStyle=orthogonalEdgeStyle;rounded=0;orthogonalLoop=1;jettySize=auto;html=1;exitX=0.5;exitY=1;exitDx=0;exitDy=0;" parent="1" source="AIB080mdf0gy7x4jEZcV-21" target="AIB080mdf0gy7x4jEZcV-26" edge="1">
          <mxGeometry relative="1" as="geometry">
            <mxPoint x="425.5" y="1390.5" as="sourcePoint" />
          </mxGeometry>
        </mxCell>
        <mxCell id="AIB080mdf0gy7x4jEZcV-23" value="" style="edgeStyle=orthogonalEdgeStyle;rounded=0;orthogonalLoop=1;jettySize=auto;html=1;" parent="1" source="AIB080mdf0gy7x4jEZcV-26" target="AIB080mdf0gy7x4jEZcV-27" edge="1">
          <mxGeometry relative="1" as="geometry" />
        </mxCell>
        <mxCell id="AIB080mdf0gy7x4jEZcV-24" value="True" style="edgeLabel;html=1;align=center;verticalAlign=middle;resizable=0;points=[];" parent="AIB080mdf0gy7x4jEZcV-23" vertex="1" connectable="0">
          <mxGeometry x="-0.173" y="-4" relative="1" as="geometry">
            <mxPoint y="4" as="offset" />
          </mxGeometry>
        </mxCell>
        <mxCell id="AIB080mdf0gy7x4jEZcV-25" value="False" style="edgeStyle=orthogonalEdgeStyle;rounded=0;orthogonalLoop=1;jettySize=auto;html=1;" parent="1" source="AIB080mdf0gy7x4jEZcV-26" target="AIB080mdf0gy7x4jEZcV-30" edge="1">
          <mxGeometry relative="1" as="geometry" />
        </mxCell>
        <mxCell id="AIB080mdf0gy7x4jEZcV-26" value="&lt;br&gt;data &amp;lt;= len(data_history_peminjaman)&lt;br&gt;" style="rhombus;whiteSpace=wrap;html=1;rounded=0;" parent="1" vertex="1">
          <mxGeometry x="307" y="1380.5" width="236" height="210" as="geometry" />
        </mxCell>
        <mxCell id="AIB080mdf0gy7x4jEZcV-27" value="&quot;Tanggal Pinjam&quot;,&lt;br&gt;&quot;Nama Peminjam&quot;,&lt;br&gt;&quot;Buku Yang Dipinjam&quot;,&lt;br&gt;&quot;Tanggal Pengembalian&quot;,&lt;br&gt;&quot;Denda&quot;,&lt;br&gt;Status&amp;nbsp;" style="rounded=0;whiteSpace=wrap;html=1;" parent="1" vertex="1">
          <mxGeometry x="76" y="1439.25" width="150" height="92.5" as="geometry" />
        </mxCell>
        <mxCell id="AIB080mdf0gy7x4jEZcV-28" value="" style="endArrow=classic;html=1;rounded=0;exitX=0.5;exitY=0;exitDx=0;exitDy=0;" parent="1" source="AIB080mdf0gy7x4jEZcV-27" edge="1">
          <mxGeometry width="50" height="50" relative="1" as="geometry">
            <mxPoint x="190" y="1520.5" as="sourcePoint" />
            <mxPoint x="430" y="1360.5" as="targetPoint" />
            <Array as="points">
              <mxPoint x="151" y="1361" />
            </Array>
          </mxGeometry>
        </mxCell>
        <mxCell id="ZZCNqkqdst6vy6hegNvY-2" value="" style="edgeStyle=orthogonalEdgeStyle;rounded=0;orthogonalLoop=1;jettySize=auto;html=1;" parent="1" source="AIB080mdf0gy7x4jEZcV-30" target="ZZCNqkqdst6vy6hegNvY-1" edge="1">
          <mxGeometry relative="1" as="geometry" />
        </mxCell>
        <mxCell id="AIB080mdf0gy7x4jEZcV-30" value="&lt;br&gt;print(&quot;Tanggal Pinjam&quot;)&lt;br&gt;print(&quot;Nama Peminjam&quot;)&lt;br&gt;print(&quot;Buku Yang Dipinjam&quot;)&lt;br&gt;print(&quot;Tanggal Pengembalian&quot;)&lt;br&gt;print(&quot;Denda&quot;)&lt;br&gt;print(Status)" style="whiteSpace=wrap;html=1;rounded=0;" parent="1" vertex="1">
          <mxGeometry x="326" y="1650.5" width="197.5" height="140" as="geometry" />
        </mxCell>
        <mxCell id="ZZCNqkqdst6vy6hegNvY-1" value="Tampilkan Tanggal Pinjam,&amp;nbsp;&lt;br&gt;Nama Peminjam,&lt;br&gt;Buku yang dipinjam,&lt;br&gt;Denda,&lt;br&gt;Stastus" style="shape=parallelogram;perimeter=parallelogramPerimeter;whiteSpace=wrap;html=1;fixedSize=1;" parent="1" vertex="1">
          <mxGeometry x="322.25" y="1890" width="205" height="140" as="geometry" />
        </mxCell>
        <mxCell id="ZZCNqkqdst6vy6hegNvY-3" value="" style="endArrow=classic;html=1;rounded=0;exitX=0.5;exitY=1;exitDx=0;exitDy=0;" parent="1" source="ZZCNqkqdst6vy6hegNvY-1" edge="1">
          <mxGeometry width="50" height="50" relative="1" as="geometry">
            <mxPoint x="540" y="2130" as="sourcePoint" />
            <mxPoint x="425" y="2600" as="targetPoint" />
          </mxGeometry>
        </mxCell>
        <mxCell id="JRqJ5GmoJPgniSZNuA87-2" value="" style="endArrow=classic;html=1;rounded=0;exitX=0.5;exitY=1;exitDx=0;exitDy=0;entryX=0;entryY=0.5;entryDx=0;entryDy=0;" parent="1" source="EPJNS99RMiqDkLSaGEO_-1" target="EPJNS99RMiqDkLSaGEO_-49" edge="1">
          <mxGeometry width="50" height="50" relative="1" as="geometry">
            <mxPoint x="4267" y="880" as="sourcePoint" />
            <mxPoint x="4122" y="870" as="targetPoint" />
            <Array as="points">
              <mxPoint x="4072" y="863" />
            </Array>
          </mxGeometry>
        </mxCell>
        <mxCell id="JRqJ5GmoJPgniSZNuA87-5" value="Npm Sudah&lt;br&gt;Digunakan" style="shape=parallelogram;perimeter=parallelogramPerimeter;whiteSpace=wrap;html=1;fixedSize=1;" parent="1" vertex="1">
          <mxGeometry x="4605" y="737" width="120" height="60" as="geometry" />
        </mxCell>
        <mxCell id="JRqJ5GmoJPgniSZNuA87-6" value="" style="endArrow=classic;html=1;rounded=0;exitX=1;exitY=0.5;exitDx=0;exitDy=0;" parent="1" source="JRqJ5GmoJPgniSZNuA87-5" edge="1">
          <mxGeometry width="50" height="50" relative="1" as="geometry">
            <mxPoint x="4570" y="870" as="sourcePoint" />
            <mxPoint x="4940" y="767" as="targetPoint" />
          </mxGeometry>
        </mxCell>
        <mxCell id="JRqJ5GmoJPgniSZNuA87-7" value="Masukkan&lt;br&gt;Nama baru" style="shape=parallelogram;perimeter=parallelogramPerimeter;whiteSpace=wrap;html=1;fixedSize=1;" parent="1" vertex="1">
          <mxGeometry x="4137" y="956.5" width="120" height="60" as="geometry" />
        </mxCell>
        <mxCell id="JRqJ5GmoJPgniSZNuA87-10" value="" style="edgeStyle=orthogonalEdgeStyle;rounded=0;orthogonalLoop=1;jettySize=auto;html=1;entryX=0;entryY=0.5;entryDx=0;entryDy=0;" parent="1" source="o_doi1X4LtrOFVroaM1k-6" target="JRqJ5GmoJPgniSZNuA87-9" edge="1">
          <mxGeometry relative="1" as="geometry">
            <mxPoint x="4122" y="1248" as="targetPoint" />
            <mxPoint x="3947" y="1248" as="sourcePoint" />
          </mxGeometry>
        </mxCell>
        <mxCell id="dfl-2LmNSql80xYp9Fll-9" value="" style="edgeStyle=orthogonalEdgeStyle;rounded=0;orthogonalLoop=1;jettySize=auto;html=1;" edge="1" parent="1" source="JRqJ5GmoJPgniSZNuA87-9" target="dfl-2LmNSql80xYp9Fll-8">
          <mxGeometry relative="1" as="geometry" />
        </mxCell>
        <mxCell id="JRqJ5GmoJPgniSZNuA87-9" value="Apakah&lt;br&gt;Npm tersedia di datamaster?" style="rhombus;whiteSpace=wrap;html=1;" parent="1" vertex="1">
          <mxGeometry x="3987" y="1192.82" width="110" height="110" as="geometry" />
        </mxCell>
        <mxCell id="JRqJ5GmoJPgniSZNuA87-11" value="YES" style="text;html=1;align=center;verticalAlign=middle;resizable=0;points=[];autosize=1;strokeColor=none;fillColor=none;" parent="1" vertex="1">
          <mxGeometry x="4087" y="1209.63" width="50" height="30" as="geometry" />
        </mxCell>
        <mxCell id="JRqJ5GmoJPgniSZNuA87-12" value="Npm&lt;br&gt;Tidak tersedia" style="shape=parallelogram;perimeter=parallelogramPerimeter;whiteSpace=wrap;html=1;fixedSize=1;" parent="1" vertex="1">
          <mxGeometry x="4157" y="1070.5" width="120" height="60" as="geometry" />
        </mxCell>
        <mxCell id="JRqJ5GmoJPgniSZNuA87-13" value="" style="endArrow=classic;html=1;rounded=0;exitX=0.5;exitY=1;exitDx=0;exitDy=0;entryX=0;entryY=0.5;entryDx=0;entryDy=0;" parent="1" source="o_doi1X4LtrOFVroaM1k-10" target="JRqJ5GmoJPgniSZNuA87-12" edge="1">
          <mxGeometry width="50" height="50" relative="1" as="geometry">
            <mxPoint x="3977" y="1110" as="sourcePoint" />
            <mxPoint x="4027" y="1065" as="targetPoint" />
            <Array as="points">
              <mxPoint x="4042" y="1101" />
            </Array>
          </mxGeometry>
        </mxCell>
        <mxCell id="JRqJ5GmoJPgniSZNuA87-14" value="" style="endArrow=classic;html=1;rounded=0;exitX=1;exitY=0.5;exitDx=0;exitDy=0;" parent="1" source="JRqJ5GmoJPgniSZNuA87-12" edge="1">
          <mxGeometry width="50" height="50" relative="1" as="geometry">
            <mxPoint x="4290" y="1110" as="sourcePoint" />
            <mxPoint x="4740" y="1100" as="targetPoint" />
          </mxGeometry>
        </mxCell>
        <mxCell id="JRqJ5GmoJPgniSZNuA87-15" value="Edit dibatalkan" style="shape=parallelogram;perimeter=parallelogramPerimeter;whiteSpace=wrap;html=1;fixedSize=1;" parent="1" vertex="1">
          <mxGeometry x="4650" y="1048" width="110" height="44" as="geometry" />
        </mxCell>
        <mxCell id="JRqJ5GmoJPgniSZNuA87-16" value="" style="endArrow=classic;html=1;rounded=0;exitX=0.5;exitY=1;exitDx=0;exitDy=0;entryX=0;entryY=0.5;entryDx=0;entryDy=0;" parent="1" source="EPJNS99RMiqDkLSaGEO_-11" target="JRqJ5GmoJPgniSZNuA87-15" edge="1">
          <mxGeometry width="50" height="50" relative="1" as="geometry">
            <mxPoint x="4470" y="1090" as="sourcePoint" />
            <mxPoint x="4520" y="1040" as="targetPoint" />
            <Array as="points">
              <mxPoint x="4348" y="1070" />
            </Array>
          </mxGeometry>
        </mxCell>
        <mxCell id="JRqJ5GmoJPgniSZNuA87-17" value="" style="endArrow=classic;html=1;rounded=0;exitX=1;exitY=0.5;exitDx=0;exitDy=0;" parent="1" source="JRqJ5GmoJPgniSZNuA87-15" edge="1">
          <mxGeometry width="50" height="50" relative="1" as="geometry">
            <mxPoint x="4780" y="1090" as="sourcePoint" />
            <mxPoint x="4940" y="1070" as="targetPoint" />
          </mxGeometry>
        </mxCell>
        <mxCell id="JRqJ5GmoJPgniSZNuA87-19" value="Masukkan&amp;nbsp;&lt;br&gt;Nomor yang valid" style="shape=parallelogram;perimeter=parallelogramPerimeter;whiteSpace=wrap;html=1;fixedSize=1;" parent="1" vertex="1">
          <mxGeometry x="3907" y="1450" width="120" height="60" as="geometry" />
        </mxCell>
        <mxCell id="JRqJ5GmoJPgniSZNuA87-22" value="" style="endArrow=classic;html=1;rounded=0;exitX=1;exitY=0.5;exitDx=0;exitDy=0;" parent="1" source="tfR2QfWA8c1eJMqMdNpU-27" edge="1">
          <mxGeometry width="50" height="50" relative="1" as="geometry">
            <mxPoint x="3290" y="880" as="sourcePoint" />
            <mxPoint x="3650" y="980" as="targetPoint" />
          </mxGeometry>
        </mxCell>
        <mxCell id="JRqJ5GmoJPgniSZNuA87-23" value="Buku tidak&lt;br&gt;bisa ditambahkan" style="shape=parallelogram;perimeter=parallelogramPerimeter;whiteSpace=wrap;html=1;fixedSize=1;" parent="1" vertex="1">
          <mxGeometry x="2930" y="850" width="120" height="60" as="geometry" />
        </mxCell>
        <mxCell id="JRqJ5GmoJPgniSZNuA87-24" value="" style="endArrow=classic;html=1;rounded=0;exitX=1;exitY=0.5;exitDx=0;exitDy=0;entryX=0;entryY=0.5;entryDx=0;entryDy=0;" parent="1" source="ksyCokjNtOuHgGahdS1c-149" target="JRqJ5GmoJPgniSZNuA87-23" edge="1">
          <mxGeometry width="50" height="50" relative="1" as="geometry">
            <mxPoint x="3060" y="890" as="sourcePoint" />
            <mxPoint x="3110" y="840" as="targetPoint" />
          </mxGeometry>
        </mxCell>
        <mxCell id="JRqJ5GmoJPgniSZNuA87-25" value="" style="endArrow=classic;html=1;rounded=0;exitX=1;exitY=0.5;exitDx=0;exitDy=0;" parent="1" source="JRqJ5GmoJPgniSZNuA87-23" edge="1">
          <mxGeometry width="50" height="50" relative="1" as="geometry">
            <mxPoint x="2980" y="890" as="sourcePoint" />
            <mxPoint x="3650" y="880" as="targetPoint" />
          </mxGeometry>
        </mxCell>
        <mxCell id="JRqJ5GmoJPgniSZNuA87-27" value="Perubahan data&lt;br&gt;dibatalkan" style="shape=parallelogram;perimeter=parallelogramPerimeter;whiteSpace=wrap;html=1;fixedSize=1;" parent="1" vertex="1">
          <mxGeometry x="3220" y="1157.5" width="130" height="63" as="geometry" />
        </mxCell>
        <mxCell id="JRqJ5GmoJPgniSZNuA87-29" value="" style="endArrow=classic;html=1;rounded=0;exitX=0.5;exitY=1;exitDx=0;exitDy=0;entryX=0;entryY=0.5;entryDx=0;entryDy=0;" parent="1" source="ksyCokjNtOuHgGahdS1c-169" target="JRqJ5GmoJPgniSZNuA87-27" edge="1">
          <mxGeometry width="50" height="50" relative="1" as="geometry">
            <mxPoint x="3140" y="1210" as="sourcePoint" />
            <mxPoint x="3190" y="1160" as="targetPoint" />
            <Array as="points">
              <mxPoint x="3100" y="1190" />
            </Array>
          </mxGeometry>
        </mxCell>
        <mxCell id="JRqJ5GmoJPgniSZNuA87-30" value="" style="endArrow=classic;html=1;rounded=0;exitX=1;exitY=0.5;exitDx=0;exitDy=0;" parent="1" source="JRqJ5GmoJPgniSZNuA87-27" edge="1">
          <mxGeometry width="50" height="50" relative="1" as="geometry">
            <mxPoint x="3170" y="1210" as="sourcePoint" />
            <mxPoint x="3650" y="1190" as="targetPoint" />
          </mxGeometry>
        </mxCell>
        <mxCell id="JRqJ5GmoJPgniSZNuA87-33" value="" style="endArrow=classic;html=1;rounded=0;exitX=1;exitY=0.5;exitDx=0;exitDy=0;" parent="1" source="tfR2QfWA8c1eJMqMdNpU-42" edge="1">
          <mxGeometry width="50" height="50" relative="1" as="geometry">
            <mxPoint x="3600" y="1133.87" as="sourcePoint" />
            <mxPoint x="3650" y="1104" as="targetPoint" />
          </mxGeometry>
        </mxCell>
        <mxCell id="JRqJ5GmoJPgniSZNuA87-35" value="" style="endArrow=classic;html=1;rounded=0;exitX=0.5;exitY=1;exitDx=0;exitDy=0;entryX=0;entryY=0.5;entryDx=0;entryDy=0;" parent="1" source="ksyCokjNtOuHgGahdS1c-177" target="tfR2QfWA8c1eJMqMdNpU-45" edge="1">
          <mxGeometry width="50" height="50" relative="1" as="geometry">
            <mxPoint x="2730" y="1440" as="sourcePoint" />
            <mxPoint x="3000" y="1440" as="targetPoint" />
            <Array as="points">
              <mxPoint x="2742" y="1540" />
            </Array>
          </mxGeometry>
        </mxCell>
        <mxCell id="dfl-2LmNSql80xYp9Fll-25" value="" style="edgeStyle=orthogonalEdgeStyle;rounded=0;orthogonalLoop=1;jettySize=auto;html=1;" edge="1" parent="1" source="JRqJ5GmoJPgniSZNuA87-37" target="dfl-2LmNSql80xYp9Fll-24">
          <mxGeometry relative="1" as="geometry" />
        </mxCell>
        <mxCell id="JRqJ5GmoJPgniSZNuA87-37" value="Apakah&lt;br&gt;anda yakin&lt;br&gt;untuk&lt;br&gt;menghapus?" style="rhombus;whiteSpace=wrap;html=1;" parent="1" vertex="1">
          <mxGeometry x="3032.5" y="1283.75" width="130" height="118.5" as="geometry" />
        </mxCell>
        <mxCell id="JRqJ5GmoJPgniSZNuA87-38" value="" style="endArrow=classic;html=1;rounded=0;exitX=1;exitY=0.5;exitDx=0;exitDy=0;entryX=0;entryY=0.5;entryDx=0;entryDy=0;" parent="1" source="ksyCokjNtOuHgGahdS1c-179" target="JRqJ5GmoJPgniSZNuA87-37" edge="1">
          <mxGeometry width="50" height="50" relative="1" as="geometry">
            <mxPoint x="2970" y="1387" as="sourcePoint" />
            <mxPoint x="3020" y="1337" as="targetPoint" />
          </mxGeometry>
        </mxCell>
        <mxCell id="JRqJ5GmoJPgniSZNuA87-40" value="" style="endArrow=classic;html=1;rounded=0;exitX=0.5;exitY=1;exitDx=0;exitDy=0;entryX=0;entryY=0.5;entryDx=0;entryDy=0;" parent="1" source="ksyCokjNtOuHgGahdS1c-179" target="ksyCokjNtOuHgGahdS1c-184" edge="1">
          <mxGeometry width="50" height="50" relative="1" as="geometry">
            <mxPoint x="2940" y="1500" as="sourcePoint" />
            <mxPoint x="2990" y="1450" as="targetPoint" />
            <Array as="points">
              <mxPoint x="2896" y="1470" />
            </Array>
          </mxGeometry>
        </mxCell>
        <mxCell id="JRqJ5GmoJPgniSZNuA87-41" value="Buku batal dihapus" style="shape=parallelogram;perimeter=parallelogramPerimeter;whiteSpace=wrap;html=1;fixedSize=1;" parent="1" vertex="1">
          <mxGeometry x="3190" y="1400.75" width="140" height="47" as="geometry" />
        </mxCell>
        <mxCell id="JRqJ5GmoJPgniSZNuA87-42" value="" style="endArrow=classic;html=1;rounded=0;exitX=0.5;exitY=1;exitDx=0;exitDy=0;entryX=0;entryY=0.5;entryDx=0;entryDy=0;" parent="1" source="JRqJ5GmoJPgniSZNuA87-37" target="JRqJ5GmoJPgniSZNuA87-41" edge="1">
          <mxGeometry width="50" height="50" relative="1" as="geometry">
            <mxPoint x="3100" y="1430" as="sourcePoint" />
            <mxPoint x="3150" y="1380" as="targetPoint" />
            <Array as="points">
              <mxPoint x="3097" y="1424" />
            </Array>
          </mxGeometry>
        </mxCell>
        <mxCell id="JRqJ5GmoJPgniSZNuA87-43" value="" style="endArrow=classic;html=1;rounded=0;exitX=1;exitY=0.5;exitDx=0;exitDy=0;" parent="1" source="tfR2QfWA8c1eJMqMdNpU-45" edge="1">
          <mxGeometry width="50" height="50" relative="1" as="geometry">
            <mxPoint x="3090" y="1520" as="sourcePoint" />
            <mxPoint x="3650" y="1540" as="targetPoint" />
          </mxGeometry>
        </mxCell>
        <mxCell id="JRqJ5GmoJPgniSZNuA87-44" value="" style="endArrow=classic;html=1;rounded=0;exitX=1;exitY=0.5;exitDx=0;exitDy=0;" parent="1" source="ksyCokjNtOuHgGahdS1c-184" edge="1">
          <mxGeometry width="50" height="50" relative="1" as="geometry">
            <mxPoint x="3090" y="1520" as="sourcePoint" />
            <mxPoint x="3650" y="1470" as="targetPoint" />
          </mxGeometry>
        </mxCell>
        <mxCell id="JRqJ5GmoJPgniSZNuA87-45" value="" style="endArrow=classic;html=1;rounded=0;exitX=1;exitY=0.5;exitDx=0;exitDy=0;" parent="1" source="JRqJ5GmoJPgniSZNuA87-41" edge="1">
          <mxGeometry width="50" height="50" relative="1" as="geometry">
            <mxPoint x="3090" y="1520" as="sourcePoint" />
            <mxPoint x="3650" y="1424" as="targetPoint" />
          </mxGeometry>
        </mxCell>
        <mxCell id="JRqJ5GmoJPgniSZNuA87-46" value="YES" style="text;html=1;align=center;verticalAlign=middle;resizable=0;points=[];autosize=1;strokeColor=none;fillColor=none;" parent="1" vertex="1">
          <mxGeometry x="3140" y="1311.5" width="50" height="30" as="geometry" />
        </mxCell>
        <mxCell id="JRqJ5GmoJPgniSZNuA87-47" value="NO" style="text;html=1;align=center;verticalAlign=middle;resizable=0;points=[];autosize=1;strokeColor=none;fillColor=none;" parent="1" vertex="1">
          <mxGeometry x="3125" y="1389.5" width="40" height="30" as="geometry" />
        </mxCell>
        <mxCell id="JRqJ5GmoJPgniSZNuA87-48" value="TRUE&lt;br&gt;" style="text;html=1;align=center;verticalAlign=middle;resizable=0;points=[];autosize=1;strokeColor=none;fillColor=none;" parent="1" vertex="1">
          <mxGeometry x="190" y="430" width="60" height="30" as="geometry" />
        </mxCell>
        <mxCell id="JRqJ5GmoJPgniSZNuA87-49" value="FALSE" style="text;html=1;align=center;verticalAlign=middle;resizable=0;points=[];autosize=1;strokeColor=none;fillColor=none;" parent="1" vertex="1">
          <mxGeometry x="326" y="300" width="60" height="30" as="geometry" />
        </mxCell>
        <mxCell id="JRqJ5GmoJPgniSZNuA87-50" value="Deklarasi Array&lt;br&gt;data_peminjaman" style="shape=process;whiteSpace=wrap;html=1;backgroundOutline=1;" parent="1" vertex="1">
          <mxGeometry x="1062" y="960" width="120" height="60" as="geometry" />
        </mxCell>
        <mxCell id="JRqJ5GmoJPgniSZNuA87-52" value="" style="endArrow=classic;html=1;rounded=0;exitX=1;exitY=0.5;exitDx=0;exitDy=0;entryX=0;entryY=0.5;entryDx=0;entryDy=0;" parent="1" source="JRqJ5GmoJPgniSZNuA87-50" target="ksyCokjNtOuHgGahdS1c-107" edge="1">
          <mxGeometry width="50" height="50" relative="1" as="geometry">
            <mxPoint x="1130" y="980" as="sourcePoint" />
            <mxPoint x="1180" y="930" as="targetPoint" />
          </mxGeometry>
        </mxCell>
        <mxCell id="JRqJ5GmoJPgniSZNuA87-54" value="Nama mahasiswa&lt;br&gt;tidak terdafar" style="shape=parallelogram;perimeter=parallelogramPerimeter;whiteSpace=wrap;html=1;fixedSize=1;" parent="1" vertex="1">
          <mxGeometry x="1255.75" y="1419.5" width="120" height="42.25" as="geometry" />
        </mxCell>
        <mxCell id="JRqJ5GmoJPgniSZNuA87-57" value="Menambahkan&lt;br&gt;ke Array&amp;nbsp;&lt;br&gt;data_peminjaman" style="rounded=0;whiteSpace=wrap;html=1;" parent="1" vertex="1">
          <mxGeometry x="2230" y="1281.7800000000002" width="100" height="42.44" as="geometry" />
        </mxCell>
        <mxCell id="JRqJ5GmoJPgniSZNuA87-60" value="" style="edgeStyle=orthogonalEdgeStyle;rounded=0;orthogonalLoop=1;jettySize=auto;html=1;exitX=1;exitY=0.5;exitDx=0;exitDy=0;" parent="1" source="ksyCokjNtOuHgGahdS1c-72" target="JRqJ5GmoJPgniSZNuA87-59" edge="1">
          <mxGeometry relative="1" as="geometry">
            <mxPoint x="2080" y="1138" as="targetPoint" />
            <mxPoint x="1880" y="1138" as="sourcePoint" />
          </mxGeometry>
        </mxCell>
        <mxCell id="JRqJ5GmoJPgniSZNuA87-59" value="Masukkan &lt;br&gt;Judul&amp;nbsp;&lt;br&gt;" style="shape=parallelogram;perimeter=parallelogramPerimeter;whiteSpace=wrap;html=1;fixedSize=1;" parent="1" vertex="1">
          <mxGeometry x="1880" y="1115.5" width="100" height="50" as="geometry" />
        </mxCell>
        <mxCell id="dfl-2LmNSql80xYp9Fll-36" value="" style="edgeStyle=orthogonalEdgeStyle;rounded=0;orthogonalLoop=1;jettySize=auto;html=1;" edge="1" parent="1" source="JRqJ5GmoJPgniSZNuA87-63" target="dfl-2LmNSql80xYp9Fll-35">
          <mxGeometry relative="1" as="geometry" />
        </mxCell>
        <mxCell id="JRqJ5GmoJPgniSZNuA87-63" value="Masukkan&lt;br&gt;Tanggal" style="shape=parallelogram;perimeter=parallelogramPerimeter;whiteSpace=wrap;html=1;fixedSize=1;" parent="1" vertex="1">
          <mxGeometry x="1990" y="1220.5" width="100" height="35.62" as="geometry" />
        </mxCell>
        <mxCell id="JRqJ5GmoJPgniSZNuA87-66" value="Apakah Judul&lt;br&gt;dan Stok buku&lt;br&gt;Tersedia?" style="rhombus;whiteSpace=wrap;html=1;" parent="1" vertex="1">
          <mxGeometry x="1990" y="1093" width="100" height="95" as="geometry" />
        </mxCell>
        <mxCell id="JRqJ5GmoJPgniSZNuA87-68" value="" style="endArrow=classic;html=1;rounded=0;exitX=1;exitY=0.5;exitDx=0;exitDy=0;entryX=0;entryY=0.5;entryDx=0;entryDy=0;" parent="1" source="JRqJ5GmoJPgniSZNuA87-59" target="JRqJ5GmoJPgniSZNuA87-66" edge="1">
          <mxGeometry width="50" height="50" relative="1" as="geometry">
            <mxPoint x="2030" y="1100" as="sourcePoint" />
            <mxPoint x="2080" y="1050" as="targetPoint" />
          </mxGeometry>
        </mxCell>
        <mxCell id="dfl-2LmNSql80xYp9Fll-45" style="edgeStyle=orthogonalEdgeStyle;rounded=0;orthogonalLoop=1;jettySize=auto;html=1;" edge="1" parent="1" source="JRqJ5GmoJPgniSZNuA87-70">
          <mxGeometry relative="1" as="geometry">
            <mxPoint x="2350" y="1140" as="targetPoint" />
          </mxGeometry>
        </mxCell>
        <mxCell id="JRqJ5GmoJPgniSZNuA87-70" value="Buku&lt;br&gt;tidak&lt;br&gt;&amp;nbsp;tersedia" style="shape=parallelogram;perimeter=parallelogramPerimeter;whiteSpace=wrap;html=1;fixedSize=1;" parent="1" vertex="1">
          <mxGeometry x="2120" y="1120" width="100" height="40" as="geometry" />
        </mxCell>
        <mxCell id="JRqJ5GmoJPgniSZNuA87-71" value="" style="endArrow=classic;html=1;rounded=0;exitX=1;exitY=0.5;exitDx=0;exitDy=0;entryX=0;entryY=0.5;entryDx=0;entryDy=0;" parent="1" source="JRqJ5GmoJPgniSZNuA87-66" target="JRqJ5GmoJPgniSZNuA87-70" edge="1">
          <mxGeometry width="50" height="50" relative="1" as="geometry">
            <mxPoint x="2075" y="1240.94" as="sourcePoint" />
            <mxPoint x="2125" y="1190.94" as="targetPoint" />
          </mxGeometry>
        </mxCell>
        <mxCell id="JRqJ5GmoJPgniSZNuA87-73" value="NO" style="text;html=1;align=center;verticalAlign=middle;resizable=0;points=[];autosize=1;strokeColor=none;fillColor=none;" parent="1" vertex="1">
          <mxGeometry x="2085" y="1117" width="40" height="30" as="geometry" />
        </mxCell>
        <mxCell id="JRqJ5GmoJPgniSZNuA87-81" value="" style="edgeStyle=orthogonalEdgeStyle;rounded=0;orthogonalLoop=1;jettySize=auto;html=1;" parent="1" source="ksyCokjNtOuHgGahdS1c-71" target="JRqJ5GmoJPgniSZNuA87-56" edge="1">
          <mxGeometry relative="1" as="geometry">
            <mxPoint x="2230" y="1310" as="targetPoint" />
            <mxPoint x="1647" y="1379" as="sourcePoint" />
          </mxGeometry>
        </mxCell>
        <mxCell id="JRqJ5GmoJPgniSZNuA87-56" value="Tamplikan :&lt;br&gt;-Tangal peminjaman&lt;br&gt;-Nama&lt;br&gt;-Judul buku&lt;br&gt;-Tanggal pengembalian&lt;br&gt;-Denda&lt;br&gt;-Status" style="shape=parallelogram;perimeter=parallelogramPerimeter;whiteSpace=wrap;html=1;fixedSize=1;" parent="1" vertex="1">
          <mxGeometry x="1730" y="1327" width="210" height="104.5" as="geometry" />
        </mxCell>
        <mxCell id="JRqJ5GmoJPgniSZNuA87-82" value="" style="endArrow=classic;html=1;rounded=0;exitX=0.5;exitY=1;exitDx=0;exitDy=0;entryX=0.5;entryY=0;entryDx=0;entryDy=0;" parent="1" source="JRqJ5GmoJPgniSZNuA87-66" target="JRqJ5GmoJPgniSZNuA87-63" edge="1">
          <mxGeometry width="50" height="50" relative="1" as="geometry">
            <mxPoint x="1930" y="1270" as="sourcePoint" />
            <mxPoint x="1980" y="1220" as="targetPoint" />
          </mxGeometry>
        </mxCell>
        <mxCell id="JRqJ5GmoJPgniSZNuA87-89" value="" style="endArrow=classic;html=1;rounded=0;exitX=1;exitY=0.5;exitDx=0;exitDy=0;" parent="1" source="JRqJ5GmoJPgniSZNuA87-57" edge="1">
          <mxGeometry width="50" height="50" relative="1" as="geometry">
            <mxPoint x="2300" y="1320" as="sourcePoint" />
            <mxPoint x="2350" y="1303" as="targetPoint" />
          </mxGeometry>
        </mxCell>
        <mxCell id="JRqJ5GmoJPgniSZNuA87-90" value="YES" style="text;html=1;align=center;verticalAlign=middle;resizable=0;points=[];autosize=1;strokeColor=none;fillColor=none;" parent="1" vertex="1">
          <mxGeometry x="2035" y="1188" width="50" height="30" as="geometry" />
        </mxCell>
        <mxCell id="JRqJ5GmoJPgniSZNuA87-91" value="" style="endArrow=classic;html=1;rounded=0;exitX=1;exitY=0.5;exitDx=0;exitDy=0;" parent="1" source="JRqJ5GmoJPgniSZNuA87-56" edge="1">
          <mxGeometry width="50" height="50" relative="1" as="geometry">
            <mxPoint x="1930" y="1430" as="sourcePoint" />
            <mxPoint x="2350" y="1380" as="targetPoint" />
          </mxGeometry>
        </mxCell>
        <mxCell id="JRqJ5GmoJPgniSZNuA87-92" value="" style="endArrow=classic;html=1;rounded=0;exitX=1;exitY=0.5;exitDx=0;exitDy=0;" parent="1" source="EPJNS99RMiqDkLSaGEO_-33" edge="1">
          <mxGeometry width="50" height="50" relative="1" as="geometry">
            <mxPoint x="4150" y="850" as="sourcePoint" />
            <mxPoint x="4900" y="619" as="targetPoint" />
          </mxGeometry>
        </mxCell>
        <mxCell id="JRqJ5GmoJPgniSZNuA87-93" value="" style="endArrow=classic;html=1;rounded=0;exitX=1;exitY=0.5;exitDx=0;exitDy=0;" parent="1" source="ksyCokjNtOuHgGahdS1c-107" edge="1">
          <mxGeometry width="50" height="50" relative="1" as="geometry">
            <mxPoint x="1850" y="1110" as="sourcePoint" />
            <mxPoint x="2230" y="990" as="targetPoint" />
          </mxGeometry>
        </mxCell>
        <mxCell id="JRqJ5GmoJPgniSZNuA87-98" value="" style="endArrow=classic;html=1;rounded=0;exitX=1;exitY=0.5;exitDx=0;exitDy=0;" parent="1" source="JRqJ5GmoJPgniSZNuA87-54" edge="1">
          <mxGeometry width="50" height="50" relative="1" as="geometry">
            <mxPoint x="1280" y="1480" as="sourcePoint" />
            <mxPoint x="2350.4211211622805" y="1440" as="targetPoint" />
          </mxGeometry>
        </mxCell>
        <mxCell id="JRqJ5GmoJPgniSZNuA87-100" value="" style="endArrow=classic;html=1;rounded=0;exitX=1;exitY=0.5;exitDx=0;exitDy=0;" parent="1" source="ksyCokjNtOuHgGahdS1c-124" edge="1">
          <mxGeometry width="50" height="50" relative="1" as="geometry">
            <mxPoint x="1600" y="1640" as="sourcePoint" />
            <mxPoint x="2350" y="1670" as="targetPoint" />
          </mxGeometry>
        </mxCell>
        <mxCell id="JRqJ5GmoJPgniSZNuA87-101" style="edgeStyle=orthogonalEdgeStyle;rounded=0;orthogonalLoop=1;jettySize=auto;html=1;exitX=0.5;exitY=1;exitDx=0;exitDy=0;" parent="1" source="ksyCokjNtOuHgGahdS1c-89" target="ksyCokjNtOuHgGahdS1c-89" edge="1">
          <mxGeometry relative="1" as="geometry" />
        </mxCell>
        <mxCell id="JRqJ5GmoJPgniSZNuA87-106" value="" style="edgeStyle=orthogonalEdgeStyle;rounded=0;orthogonalLoop=1;jettySize=auto;html=1;" parent="1" source="JRqJ5GmoJPgniSZNuA87-103" target="JRqJ5GmoJPgniSZNuA87-104" edge="1">
          <mxGeometry relative="1" as="geometry" />
        </mxCell>
        <mxCell id="JRqJ5GmoJPgniSZNuA87-103" value="Tampilkan&lt;br&gt;Tanggal Pinjam&lt;br&gt;Judul Buku" style="shape=parallelogram;perimeter=parallelogramPerimeter;whiteSpace=wrap;html=1;fixedSize=1;" parent="1" vertex="1">
          <mxGeometry x="1425.5" y="1511" width="120" height="60" as="geometry" />
        </mxCell>
        <mxCell id="JRqJ5GmoJPgniSZNuA87-107" value="" style="edgeStyle=orthogonalEdgeStyle;rounded=0;orthogonalLoop=1;jettySize=auto;html=1;" parent="1" source="JRqJ5GmoJPgniSZNuA87-104" target="ksyCokjNtOuHgGahdS1c-89" edge="1">
          <mxGeometry relative="1" as="geometry" />
        </mxCell>
        <mxCell id="JRqJ5GmoJPgniSZNuA87-104" value="Masukkan&lt;br&gt;Tanggal Pinjam&amp;nbsp;&lt;br&gt;yang baru" style="shape=parallelogram;perimeter=parallelogramPerimeter;whiteSpace=wrap;html=1;fixedSize=1;" parent="1" vertex="1">
          <mxGeometry x="1590" y="1511" width="120" height="60" as="geometry" />
        </mxCell>
        <mxCell id="JRqJ5GmoJPgniSZNuA87-108" value="Tanggal&amp;nbsp;&lt;br&gt;peminjaman&lt;br&gt;berhasil di rubah" style="shape=parallelogram;perimeter=parallelogramPerimeter;whiteSpace=wrap;html=1;fixedSize=1;" parent="1" vertex="1">
          <mxGeometry x="1980" y="1510.5" width="120" height="60" as="geometry" />
        </mxCell>
        <mxCell id="JRqJ5GmoJPgniSZNuA87-110" value="" style="endArrow=classic;html=1;rounded=0;exitX=1;exitY=0.5;exitDx=0;exitDy=0;" parent="1" source="JRqJ5GmoJPgniSZNuA87-108" edge="1">
          <mxGeometry width="50" height="50" relative="1" as="geometry">
            <mxPoint x="2050" y="1660" as="sourcePoint" />
            <mxPoint x="2350" y="1540" as="targetPoint" />
          </mxGeometry>
        </mxCell>
        <mxCell id="JRqJ5GmoJPgniSZNuA87-117" value="" style="edgeStyle=orthogonalEdgeStyle;rounded=0;orthogonalLoop=1;jettySize=auto;html=1;" parent="1" source="JRqJ5GmoJPgniSZNuA87-114" target="JRqJ5GmoJPgniSZNuA87-116" edge="1">
          <mxGeometry relative="1" as="geometry" />
        </mxCell>
        <mxCell id="JRqJ5GmoJPgniSZNuA87-114" value="Menghapus array&lt;br&gt;data_peminjaman" style="whiteSpace=wrap;html=1;" parent="1" vertex="1">
          <mxGeometry x="1610" y="1772" width="120" height="60" as="geometry" />
        </mxCell>
        <mxCell id="JRqJ5GmoJPgniSZNuA87-120" value="" style="edgeStyle=orthogonalEdgeStyle;rounded=0;orthogonalLoop=1;jettySize=auto;html=1;" parent="1" source="JRqJ5GmoJPgniSZNuA87-116" target="JRqJ5GmoJPgniSZNuA87-119" edge="1">
          <mxGeometry relative="1" as="geometry" />
        </mxCell>
        <mxCell id="JRqJ5GmoJPgniSZNuA87-116" value="Menambahkan&lt;br&gt;ke array&lt;br&gt;&amp;nbsp;data_history_peminjaman" style="whiteSpace=wrap;html=1;" parent="1" vertex="1">
          <mxGeometry x="1790" y="1772" width="150" height="60" as="geometry" />
        </mxCell>
        <mxCell id="JRqJ5GmoJPgniSZNuA87-119" value="Buku berhasil&lt;br&gt;di kembalikan" style="shape=parallelogram;perimeter=parallelogramPerimeter;whiteSpace=wrap;html=1;fixedSize=1;" parent="1" vertex="1">
          <mxGeometry x="2000" y="1772.5" width="120" height="60" as="geometry" />
        </mxCell>
        <mxCell id="JRqJ5GmoJPgniSZNuA87-123" value="" style="endArrow=classic;html=1;rounded=0;exitX=1;exitY=0.5;exitDx=0;exitDy=0;" parent="1" source="JRqJ5GmoJPgniSZNuA87-119" edge="1">
          <mxGeometry width="50" height="50" relative="1" as="geometry">
            <mxPoint x="1750" y="1750" as="sourcePoint" />
            <mxPoint x="2350" y="1803" as="targetPoint" />
          </mxGeometry>
        </mxCell>
        <mxCell id="JRqJ5GmoJPgniSZNuA87-138" value="" style="edgeStyle=orthogonalEdgeStyle;rounded=0;orthogonalLoop=1;jettySize=auto;html=1;" parent="1" source="JRqJ5GmoJPgniSZNuA87-128" target="JRqJ5GmoJPgniSZNuA87-137" edge="1">
          <mxGeometry relative="1" as="geometry" />
        </mxCell>
        <mxCell id="JRqJ5GmoJPgniSZNuA87-163" value="" style="edgeStyle=orthogonalEdgeStyle;rounded=0;orthogonalLoop=1;jettySize=auto;html=1;" parent="1" source="JRqJ5GmoJPgniSZNuA87-128" target="JRqJ5GmoJPgniSZNuA87-162" edge="1">
          <mxGeometry relative="1" as="geometry" />
        </mxCell>
        <mxCell id="JRqJ5GmoJPgniSZNuA87-128" value="nomor = 5" style="rhombus;whiteSpace=wrap;html=1;" parent="1" vertex="1">
          <mxGeometry x="847" y="2010" width="120" height="115" as="geometry" />
        </mxCell>
        <mxCell id="JRqJ5GmoJPgniSZNuA87-136" value="" style="edgeStyle=orthogonalEdgeStyle;rounded=0;orthogonalLoop=1;jettySize=auto;html=1;" parent="1" source="ksyCokjNtOuHgGahdS1c-216" target="JRqJ5GmoJPgniSZNuA87-135" edge="1">
          <mxGeometry relative="1" as="geometry">
            <mxPoint x="1275" y="1803" as="sourcePoint" />
            <mxPoint x="1465" y="1802" as="targetPoint" />
          </mxGeometry>
        </mxCell>
        <mxCell id="JRqJ5GmoJPgniSZNuA87-135" value="Stok buku bertambah 1" style="rounded=0;whiteSpace=wrap;html=1;" parent="1" vertex="1">
          <mxGeometry x="1410" y="1772" width="120" height="60" as="geometry" />
        </mxCell>
        <mxCell id="JRqJ5GmoJPgniSZNuA87-140" value="" style="edgeStyle=orthogonalEdgeStyle;rounded=0;orthogonalLoop=1;jettySize=auto;html=1;entryX=0;entryY=0.5;entryDx=0;entryDy=0;" parent="1" source="JRqJ5GmoJPgniSZNuA87-137" target="JRqJ5GmoJPgniSZNuA87-141" edge="1">
          <mxGeometry relative="1" as="geometry">
            <mxPoint x="1238.5871839581514" y="2067.5806451612902" as="targetPoint" />
          </mxGeometry>
        </mxCell>
        <mxCell id="JRqJ5GmoJPgniSZNuA87-137" value="Masukkan&lt;br&gt;nama peminjam" style="shape=parallelogram;perimeter=parallelogramPerimeter;whiteSpace=wrap;html=1;fixedSize=1;" parent="1" vertex="1">
          <mxGeometry x="1047" y="2037.5" width="120" height="60" as="geometry" />
        </mxCell>
        <mxCell id="JRqJ5GmoJPgniSZNuA87-145" value="" style="edgeStyle=orthogonalEdgeStyle;rounded=0;orthogonalLoop=1;jettySize=auto;html=1;" parent="1" source="JRqJ5GmoJPgniSZNuA87-141" target="JRqJ5GmoJPgniSZNuA87-144" edge="1">
          <mxGeometry relative="1" as="geometry" />
        </mxCell>
        <mxCell id="JRqJ5GmoJPgniSZNuA87-152" value="" style="edgeStyle=orthogonalEdgeStyle;rounded=0;orthogonalLoop=1;jettySize=auto;html=1;" parent="1" source="JRqJ5GmoJPgniSZNuA87-141" target="JRqJ5GmoJPgniSZNuA87-151" edge="1">
          <mxGeometry relative="1" as="geometry" />
        </mxCell>
        <mxCell id="JRqJ5GmoJPgniSZNuA87-141" value="Apakah &lt;br&gt;mahasiswa&lt;br&gt;Sedang meminjam&lt;br&gt;buku?" style="rhombus;whiteSpace=wrap;html=1;" parent="1" vertex="1">
          <mxGeometry x="1247" y="2002.75" width="140" height="129.5" as="geometry" />
        </mxCell>
        <mxCell id="JRqJ5GmoJPgniSZNuA87-147" value="" style="edgeStyle=orthogonalEdgeStyle;rounded=0;orthogonalLoop=1;jettySize=auto;html=1;" parent="1" source="JRqJ5GmoJPgniSZNuA87-144" target="JRqJ5GmoJPgniSZNuA87-146" edge="1">
          <mxGeometry relative="1" as="geometry" />
        </mxCell>
        <mxCell id="JRqJ5GmoJPgniSZNuA87-154" value="" style="edgeStyle=orthogonalEdgeStyle;rounded=0;orthogonalLoop=1;jettySize=auto;html=1;" parent="1" source="JRqJ5GmoJPgniSZNuA87-144" target="JRqJ5GmoJPgniSZNuA87-153" edge="1">
          <mxGeometry relative="1" as="geometry" />
        </mxCell>
        <mxCell id="JRqJ5GmoJPgniSZNuA87-144" value="Apakah&lt;br&gt;anda yakin&lt;br&gt;untuk&lt;br&gt;menghapus?" style="rhombus;whiteSpace=wrap;html=1;" parent="1" vertex="1">
          <mxGeometry x="1460" y="2008.25" width="130" height="118.5" as="geometry" />
        </mxCell>
        <mxCell id="JRqJ5GmoJPgniSZNuA87-149" value="" style="edgeStyle=orthogonalEdgeStyle;rounded=0;orthogonalLoop=1;jettySize=auto;html=1;" parent="1" source="JRqJ5GmoJPgniSZNuA87-146" target="JRqJ5GmoJPgniSZNuA87-148" edge="1">
          <mxGeometry relative="1" as="geometry" />
        </mxCell>
        <mxCell id="JRqJ5GmoJPgniSZNuA87-146" value="Proses penghapusan&lt;br&gt;dan stok buku bertambah 1" style="whiteSpace=wrap;html=1;" parent="1" vertex="1">
          <mxGeometry x="1675" y="2037.5" width="120" height="60" as="geometry" />
        </mxCell>
        <mxCell id="dfl-2LmNSql80xYp9Fll-47" style="edgeStyle=orthogonalEdgeStyle;rounded=0;orthogonalLoop=1;jettySize=auto;html=1;" edge="1" parent="1" source="JRqJ5GmoJPgniSZNuA87-148">
          <mxGeometry relative="1" as="geometry">
            <mxPoint x="2350" y="2067.5" as="targetPoint" />
          </mxGeometry>
        </mxCell>
        <mxCell id="JRqJ5GmoJPgniSZNuA87-148" value="Peminjaman &lt;br&gt;berhasil dihapus" style="shape=parallelogram;perimeter=parallelogramPerimeter;whiteSpace=wrap;html=1;fixedSize=1;" parent="1" vertex="1">
          <mxGeometry x="1880" y="2037.5" width="120" height="60" as="geometry" />
        </mxCell>
        <mxCell id="JRqJ5GmoJPgniSZNuA87-151" value="mahasiswa tidak terdaftar" style="shape=parallelogram;perimeter=parallelogramPerimeter;whiteSpace=wrap;html=1;fixedSize=1;" parent="1" vertex="1">
          <mxGeometry x="1257" y="2310" width="120" height="60" as="geometry" />
        </mxCell>
        <mxCell id="JRqJ5GmoJPgniSZNuA87-153" value="Penghapusan&lt;br&gt;dibatalkan" style="shape=parallelogram;perimeter=parallelogramPerimeter;whiteSpace=wrap;html=1;fixedSize=1;" parent="1" vertex="1">
          <mxGeometry x="1465" y="2210" width="120" height="60" as="geometry" />
        </mxCell>
        <mxCell id="JRqJ5GmoJPgniSZNuA87-155" value="" style="endArrow=classic;html=1;rounded=0;exitX=1;exitY=0.5;exitDx=0;exitDy=0;" parent="1" source="JRqJ5GmoJPgniSZNuA87-153" edge="1">
          <mxGeometry width="50" height="50" relative="1" as="geometry">
            <mxPoint x="1620" y="2150" as="sourcePoint" />
            <mxPoint x="2350" y="2240" as="targetPoint" />
          </mxGeometry>
        </mxCell>
        <mxCell id="JRqJ5GmoJPgniSZNuA87-156" value="NO" style="text;html=1;align=center;verticalAlign=middle;resizable=0;points=[];autosize=1;strokeColor=none;fillColor=none;" parent="1" vertex="1">
          <mxGeometry x="1397" y="2030" width="40" height="30" as="geometry" />
        </mxCell>
        <mxCell id="JRqJ5GmoJPgniSZNuA87-157" value="YES" style="text;html=1;align=center;verticalAlign=middle;resizable=0;points=[];autosize=1;strokeColor=none;fillColor=none;" parent="1" vertex="1">
          <mxGeometry x="1315" y="2170" width="50" height="30" as="geometry" />
        </mxCell>
        <mxCell id="JRqJ5GmoJPgniSZNuA87-158" value="YES" style="text;html=1;align=center;verticalAlign=middle;resizable=0;points=[];autosize=1;strokeColor=none;fillColor=none;" parent="1" vertex="1">
          <mxGeometry x="1600" y="2037.5" width="50" height="30" as="geometry" />
        </mxCell>
        <mxCell id="JRqJ5GmoJPgniSZNuA87-160" value="NO" style="text;html=1;align=center;verticalAlign=middle;resizable=0;points=[];autosize=1;strokeColor=none;fillColor=none;" parent="1" vertex="1">
          <mxGeometry x="1530" y="2140" width="40" height="30" as="geometry" />
        </mxCell>
        <mxCell id="JRqJ5GmoJPgniSZNuA87-161" value="" style="endArrow=classic;html=1;rounded=0;exitX=1;exitY=0.5;exitDx=0;exitDy=0;" parent="1" source="JRqJ5GmoJPgniSZNuA87-151" edge="1">
          <mxGeometry width="50" height="50" relative="1" as="geometry">
            <mxPoint x="1620" y="2330" as="sourcePoint" />
            <mxPoint x="2350" y="2340" as="targetPoint" />
          </mxGeometry>
        </mxCell>
        <mxCell id="JRqJ5GmoJPgniSZNuA87-167" value="" style="edgeStyle=orthogonalEdgeStyle;rounded=0;orthogonalLoop=1;jettySize=auto;html=1;" parent="1" source="JRqJ5GmoJPgniSZNuA87-162" target="JRqJ5GmoJPgniSZNuA87-166" edge="1">
          <mxGeometry relative="1" as="geometry" />
        </mxCell>
        <mxCell id="JRqJ5GmoJPgniSZNuA87-162" value="nomor = 6" style="rhombus;whiteSpace=wrap;html=1;" parent="1" vertex="1">
          <mxGeometry x="847" y="2350" width="120" height="115" as="geometry" />
        </mxCell>
        <mxCell id="JRqJ5GmoJPgniSZNuA87-164" value="YES" style="text;html=1;strokeColor=none;fillColor=none;align=center;verticalAlign=middle;whiteSpace=wrap;rounded=0;" parent="1" vertex="1">
          <mxGeometry x="970.5" y="2037.5" width="60" height="22.5" as="geometry" />
        </mxCell>
        <mxCell id="JRqJ5GmoJPgniSZNuA87-165" value="NO" style="text;html=1;align=center;verticalAlign=middle;resizable=0;points=[];autosize=1;strokeColor=none;fillColor=none;" parent="1" vertex="1">
          <mxGeometry x="907" y="2140" width="40" height="30" as="geometry" />
        </mxCell>
        <mxCell id="dfl-2LmNSql80xYp9Fll-33" style="edgeStyle=orthogonalEdgeStyle;rounded=0;orthogonalLoop=1;jettySize=auto;html=1;entryX=1;entryY=0.5;entryDx=0;entryDy=0;" edge="1" parent="1" source="JRqJ5GmoJPgniSZNuA87-166" target="ksyCokjNtOuHgGahdS1c-55">
          <mxGeometry relative="1" as="geometry">
            <Array as="points">
              <mxPoint x="2350" y="2407" />
              <mxPoint x="2350" y="820" />
            </Array>
          </mxGeometry>
        </mxCell>
        <mxCell id="JRqJ5GmoJPgniSZNuA87-166" value="Masukkan nomor&amp;nbsp;&lt;br&gt;valid" style="whiteSpace=wrap;html=1;" parent="1" vertex="1">
          <mxGeometry x="1047" y="2377.5" width="120" height="60" as="geometry" />
        </mxCell>
        <mxCell id="JRqJ5GmoJPgniSZNuA87-169" value="" style="endArrow=classic;html=1;rounded=0;exitX=0.5;exitY=1;exitDx=0;exitDy=0;" parent="1" source="JRqJ5GmoJPgniSZNuA87-162" edge="1">
          <mxGeometry width="50" height="50" relative="1" as="geometry">
            <mxPoint x="1530" y="2420" as="sourcePoint" />
            <mxPoint x="907" y="2600" as="targetPoint" />
          </mxGeometry>
        </mxCell>
        <mxCell id="JRqJ5GmoJPgniSZNuA87-170" value="NO" style="text;html=1;align=center;verticalAlign=middle;resizable=0;points=[];autosize=1;strokeColor=none;fillColor=none;" parent="1" vertex="1">
          <mxGeometry x="984.5" y="2377.5" width="40" height="30" as="geometry" />
        </mxCell>
        <mxCell id="JRqJ5GmoJPgniSZNuA87-171" value="YES" style="text;html=1;strokeColor=none;fillColor=none;align=center;verticalAlign=middle;whiteSpace=wrap;rounded=0;" parent="1" vertex="1">
          <mxGeometry x="910" y="2480" width="60" height="22.5" as="geometry" />
        </mxCell>
        <mxCell id="JRqJ5GmoJPgniSZNuA87-173" value="" style="endArrow=classic;html=1;rounded=0;" parent="1" edge="1">
          <mxGeometry width="50" height="50" relative="1" as="geometry">
            <mxPoint x="2780" y="2600" as="sourcePoint" />
            <mxPoint x="2650" y="2600" as="targetPoint" />
          </mxGeometry>
        </mxCell>
        <mxCell id="JRqJ5GmoJPgniSZNuA87-175" value="" style="endArrow=classic;html=1;rounded=0;" parent="1" edge="1">
          <mxGeometry width="50" height="50" relative="1" as="geometry">
            <mxPoint x="700" y="2600" as="sourcePoint" />
            <mxPoint x="600" y="2600" as="targetPoint" />
          </mxGeometry>
        </mxCell>
        <mxCell id="JRqJ5GmoJPgniSZNuA87-176" value="" style="endArrow=classic;html=1;rounded=0;" parent="1" edge="1">
          <mxGeometry width="50" height="50" relative="1" as="geometry">
            <mxPoint x="40" y="2500" as="sourcePoint" />
            <mxPoint x="40" y="2350" as="targetPoint" />
          </mxGeometry>
        </mxCell>
        <mxCell id="dfl-2LmNSql80xYp9Fll-16" value="" style="edgeStyle=orthogonalEdgeStyle;rounded=0;orthogonalLoop=1;jettySize=auto;html=1;" edge="1" parent="1" source="dfl-2LmNSql80xYp9Fll-1" target="dfl-2LmNSql80xYp9Fll-4">
          <mxGeometry relative="1" as="geometry" />
        </mxCell>
        <mxCell id="dfl-2LmNSql80xYp9Fll-1" value="SimpanData" style="whiteSpace=wrap;html=1;" vertex="1" parent="1">
          <mxGeometry x="4540" y="833" width="120" height="60" as="geometry" />
        </mxCell>
        <mxCell id="dfl-2LmNSql80xYp9Fll-7" value="" style="edgeStyle=orthogonalEdgeStyle;rounded=0;orthogonalLoop=1;jettySize=auto;html=1;" edge="1" parent="1" source="dfl-2LmNSql80xYp9Fll-4">
          <mxGeometry relative="1" as="geometry">
            <mxPoint x="4940" y="863" as="targetPoint" />
            <Array as="points">
              <mxPoint x="4929" y="863" />
              <mxPoint x="4999" y="864" />
            </Array>
          </mxGeometry>
        </mxCell>
        <mxCell id="dfl-2LmNSql80xYp9Fll-4" value="BErhasil" style="shape=parallelogram;perimeter=parallelogramPerimeter;whiteSpace=wrap;html=1;fixedSize=1;" vertex="1" parent="1">
          <mxGeometry x="4739" y="833" width="120" height="60" as="geometry" />
        </mxCell>
        <mxCell id="dfl-2LmNSql80xYp9Fll-10" style="edgeStyle=orthogonalEdgeStyle;rounded=0;orthogonalLoop=1;jettySize=auto;html=1;" edge="1" parent="1" source="dfl-2LmNSql80xYp9Fll-8">
          <mxGeometry relative="1" as="geometry">
            <mxPoint x="4940" y="1396" as="targetPoint" />
          </mxGeometry>
        </mxCell>
        <mxCell id="dfl-2LmNSql80xYp9Fll-8" value="Mahasiswa Tidak terdaftar" style="shape=parallelogram;perimeter=parallelogramPerimeter;whiteSpace=wrap;html=1;fixedSize=1;" vertex="1" parent="1">
          <mxGeometry x="3982" y="1367" width="120" height="60" as="geometry" />
        </mxCell>
        <mxCell id="dfl-2LmNSql80xYp9Fll-11" value="NO" style="text;html=1;align=center;verticalAlign=middle;resizable=0;points=[];autosize=1;strokeColor=none;fillColor=none;" vertex="1" parent="1">
          <mxGeometry x="4037" y="1307" width="40" height="30" as="geometry" />
        </mxCell>
        <mxCell id="dfl-2LmNSql80xYp9Fll-15" value="" style="edgeStyle=orthogonalEdgeStyle;rounded=0;orthogonalLoop=1;jettySize=auto;html=1;" edge="1" parent="1" source="dfl-2LmNSql80xYp9Fll-13" target="EPJNS99RMiqDkLSaGEO_-42">
          <mxGeometry relative="1" as="geometry" />
        </mxCell>
        <mxCell id="dfl-2LmNSql80xYp9Fll-13" value="proses edit mahasiswa" style="whiteSpace=wrap;html=1;rounded=0;" vertex="1" parent="1">
          <mxGeometry x="4495.5" y="956.5" width="120" height="60" as="geometry" />
        </mxCell>
        <mxCell id="dfl-2LmNSql80xYp9Fll-19" value="" style="edgeStyle=orthogonalEdgeStyle;rounded=0;orthogonalLoop=1;jettySize=auto;html=1;" edge="1" parent="1" source="dfl-2LmNSql80xYp9Fll-17" target="EPJNS99RMiqDkLSaGEO_-38">
          <mxGeometry relative="1" as="geometry" />
        </mxCell>
        <mxCell id="dfl-2LmNSql80xYp9Fll-17" value="proses edit mahasiswa" style="whiteSpace=wrap;html=1;" vertex="1" parent="1">
          <mxGeometry x="4500" y="1217" width="120" height="60" as="geometry" />
        </mxCell>
        <mxCell id="dfl-2LmNSql80xYp9Fll-22" value="" style="edgeStyle=orthogonalEdgeStyle;rounded=0;orthogonalLoop=1;jettySize=auto;html=1;" edge="1" parent="1" source="dfl-2LmNSql80xYp9Fll-20" target="dfl-2LmNSql80xYp9Fll-21">
          <mxGeometry relative="1" as="geometry" />
        </mxCell>
        <mxCell id="dfl-2LmNSql80xYp9Fll-20" value="masukkan&amp;nbsp;&lt;span style=&quot;border-color: var(--border-color);&quot;&gt;judul buku,&amp;nbsp;&lt;/span&gt;&lt;span style=&quot;border-color: var(--border-color);&quot;&gt;tahun terbit,&amp;nbsp;&lt;/span&gt;&lt;span style=&quot;border-color: var(--border-color);&quot;&gt;penerbit,&amp;nbsp;&lt;/span&gt;&lt;span style=&quot;border-color: var(--border-color);&quot;&gt;stok buku&lt;/span&gt;" style="shape=parallelogram;perimeter=parallelogramPerimeter;whiteSpace=wrap;html=1;fixedSize=1;" vertex="1" parent="1">
          <mxGeometry x="2841" y="950" width="120" height="60" as="geometry" />
        </mxCell>
        <mxCell id="dfl-2LmNSql80xYp9Fll-23" value="" style="edgeStyle=orthogonalEdgeStyle;rounded=0;orthogonalLoop=1;jettySize=auto;html=1;" edge="1" parent="1" source="dfl-2LmNSql80xYp9Fll-21" target="tfR2QfWA8c1eJMqMdNpU-27">
          <mxGeometry relative="1" as="geometry" />
        </mxCell>
        <mxCell id="dfl-2LmNSql80xYp9Fll-21" value="prosesPenambahanBuku" style="whiteSpace=wrap;html=1;" vertex="1" parent="1">
          <mxGeometry x="3041" y="950" width="139" height="60" as="geometry" />
        </mxCell>
        <mxCell id="dfl-2LmNSql80xYp9Fll-30" value="" style="edgeStyle=orthogonalEdgeStyle;rounded=0;orthogonalLoop=1;jettySize=auto;html=1;" edge="1" parent="1" source="dfl-2LmNSql80xYp9Fll-24" target="tfR2QfWA8c1eJMqMdNpU-21">
          <mxGeometry relative="1" as="geometry" />
        </mxCell>
        <mxCell id="dfl-2LmNSql80xYp9Fll-24" value="prosesHapusBuku" style="whiteSpace=wrap;html=1;" vertex="1" parent="1">
          <mxGeometry x="3190" y="1316" width="106" height="53" as="geometry" />
        </mxCell>
        <mxCell id="dfl-2LmNSql80xYp9Fll-29" value="" style="edgeStyle=orthogonalEdgeStyle;rounded=0;orthogonalLoop=1;jettySize=auto;html=1;" edge="1" parent="1" source="dfl-2LmNSql80xYp9Fll-27" target="tfR2QfWA8c1eJMqMdNpU-42">
          <mxGeometry relative="1" as="geometry" />
        </mxCell>
        <mxCell id="dfl-2LmNSql80xYp9Fll-27" value="prosesEditDataBuku" style="whiteSpace=wrap;html=1;" vertex="1" parent="1">
          <mxGeometry x="3260" y="1074.5" width="120" height="60" as="geometry" />
        </mxCell>
        <mxCell id="dfl-2LmNSql80xYp9Fll-43" value="" style="edgeStyle=orthogonalEdgeStyle;rounded=0;orthogonalLoop=1;jettySize=auto;html=1;entryX=0;entryY=0.5;entryDx=0;entryDy=0;" edge="1" parent="1" source="dfl-2LmNSql80xYp9Fll-35" target="dfl-2LmNSql80xYp9Fll-42">
          <mxGeometry relative="1" as="geometry" />
        </mxCell>
        <mxCell id="dfl-2LmNSql80xYp9Fll-35" value="&lt;font style=&quot;font-size: 8px;&quot;&gt;prosesPeminjamanBuku&lt;/font&gt;" style="whiteSpace=wrap;html=1;" vertex="1" parent="1">
          <mxGeometry x="1995.57" y="1288.25" width="88.85" height="30" as="geometry" />
        </mxCell>
        <mxCell id="dfl-2LmNSql80xYp9Fll-44" value="" style="edgeStyle=orthogonalEdgeStyle;rounded=0;orthogonalLoop=1;jettySize=auto;html=1;" edge="1" parent="1" source="dfl-2LmNSql80xYp9Fll-42" target="JRqJ5GmoJPgniSZNuA87-57">
          <mxGeometry relative="1" as="geometry" />
        </mxCell>
        <mxCell id="dfl-2LmNSql80xYp9Fll-42" value="peminjaman berhasil" style="shape=parallelogram;perimeter=parallelogramPerimeter;whiteSpace=wrap;html=1;fixedSize=1;" vertex="1" parent="1">
          <mxGeometry x="2107" y="1281.5" width="99.99" height="43" as="geometry" />
        </mxCell>
      </root>
    </mxGraphModel>
  </diagram>
</mxfile>
